<svg xmlns="http://www.w3.org/2000/svg" version="1.1" xmlns:xlink="http://www.w3.org/1999/xlink" xmlns:svgjs="http://svgjs.dev/svgjs" width="1000" height="1000" viewBox="0 0 1000 1000"><g transform="matrix(1,0,0,1,0,0)"><svg viewBox="0 0 280 280" data-background-color="#ffffff" preserveAspectRatio="xMidYMid meet" height="1000" width="1000" xmlns="http://www.w3.org/2000/svg" xmlns:xlink="http://www.w3.org/1999/xlink"><g id="tight-bounds" transform="matrix(1,0,0,1,0,0)"><svg viewBox="0 0 280 280" height="280" width="280"><g><svg viewBox="0 0 280 280" height="280" width="280"><g><svg viewBox="0 0 280 280" height="280" width="280"><g id="textblocktransform"><svg viewBox="0 0 280 280" height="280" width="280" id="textblock"><g><svg viewBox="0 0 280 280" height="280" width="280"><g transform="matrix(1,0,0,1,57.50420886156945,57.50420886156945)"><svg viewBox="0 0 164.9915822768611 164.9915822768611" height="164.9915822768611" width="164.9915822768611"><g><circle r="82" cx="82.49579113843055" cy="82.49579113843055" fill="#35185a" data-fill-palette-color="accent"></circle><svg xmlns="http://www.w3.org/2000/svg" xmlns:xlink="http://www.w3.org/1999/xlink" version="1.1" x="24.74873734152917" y="24.748737341529164" viewBox="1.899999976158142 1.5842642784118652 91.19998931884766 94.02626037597656" style="enable-background:new 0 0 95 95;" xml:space="preserve" width="115.49410759380275" height="115.49410759380275" class="icon-o-0" data-fill-palette-color="quaternary" id="o-0"><path d="M92.8 43.1c-0.1-0.4-0.1-0.7-0.2-1.1 0-0.1 0-0.1-0.1-0.2 0 0 0-0.1-0.1-0.1-0.1-0.2-0.2-0.4-0.2-0.7-0.3-1.3-0.5-2.5-0.8-3.8-0.1-0.6-0.3-1.2-0.4-1.7-0.8-2.3-1.8-4.6-2.5-6.9-0.1-0.1-0.2-0.2-0.3-0.4-0.4-1.3-1-2.4-1.6-3.6-0.2-0.1-0.3-0.3-0.4-0.5-0.4-0.4-0.6-0.9-0.9-1.3-0.7-1.1-1.4-2.1-2.1-3.1-2.1-2.9-4.7-5.3-7.1-8-0.3-0.1-0.5-0.3-0.7-0.5 0.1 0.2 0 0 0 0 0-0.1-0.1-0.1-0.1-0.2-0.1-0.1-0.1-0.1-0.2-0.2 0 0-0.1-0.1-0.1-0.1 0 0-0.1-0.1-0.2-0.1 0 0 0 0 0 0 0 0 0 0 0 0-0.1 0-0.1 0-0.2 0-0.1 0-0.1 0-0.1-0.1-0.4 0-0.8-0.3-1.1-0.6-1-0.8-2.1-1.4-3.2-2.1-8.4-5-17.5-6.9-27.3-6-2 0.2-4 0.6-6 0.9-3 0.4-5.7 1.3-8.3 2.7-0.9 0.5-1.8 0.9-2.8 1.2-1.1 0.4-2.1 1-3.2 1.5-0.3 0.3-0.6 0.6-0.8 0.9 0 0.2 0 0.4-0.2 0.6C21.5 10 21.4 10 21.2 10c-0.2 0.2-0.4 0.3-0.7 0.3-0.1 0.1-0.1 0.1-0.2 0.3-0.3 0.8-1 1.2-1.8 1.4-0.1 0-0.3 0.1-0.4 0.1-0.1 0.2-0.2 0.4-0.3 0.5-0.1 0.2-0.2 0.3-0.4 0.4-0.3 0.6-0.8 1-1.3 1.5-1.9 1.8-3.6 3.8-5.2 5.8-1.4 1.7-2.5 3.7-3.5 5.7C6 29 4.7 31.9 3.9 35c-0.1 0.4-0.1 0.9-0.4 1.2-0.3 1.2-0.3 2.5-0.6 3.8 0 0.1-0.1 0.3-0.2 0.4C2.1 43.7 1.9 47 2 50.4c0 0.7 0.2 1.5-0.1 2.2C2 53 2 53.4 2.1 53.9c0.1 0.3 0.2 0.7 0.3 1 0.6 4.5 1.8 8.7 3.5 12.9 0.5 1.3 1.3 2.4 1.6 3.8 1.1 0.8 1.3 2.2 2.1 3.2 1.1 1.3 2 2.8 3.2 4.2 0.3 0.3 0.5 0.7 0.9 0.8 0.5 1 1.3 1.7 2 2.5 2.3 2.3 4.8 4.4 7.6 6.1 6.1 4 12.9 6.3 20.1 7 5 0.5 9.9 0.1 14.8-1.1C66.8 92.1 74 87.7 80 81.4c3-3.2 5.5-6.8 7.6-10.7 0.2-0.3 0.3-0.6 0.5-0.7 0-0.1 0.1-0.2 0.2-0.3 0 0 0-0.1 0.1-0.1 0 0 0 0 0-0.1 0.2-0.5 0.4-1 0.7-1.5-0.1-0.2-0.1-0.3 0-0.5 0.6-0.7 0.6-1.7 0.9-2.5 1.2-3.3 2.1-6.8 2.4-10.3 0.3-3 0.6-5.9 0.7-8.9C93 45 92.9 44 92.8 43.1zM16.7 23.7c1-0.3 2-0.4 3-0.4 1.7-0.1 3.3-0.8 4.8-1.5 0.5-0.2 0.8-0.6 0.8-1 0.1-0.5 0-0.9-0.6-1.2-1.2-0.6-2.5-0.8-3.8-1.1-1.3-0.3-2.5-0.7-3.7-1.2 0.4-1.2 1.1-1.5 2.2-1.5 0.9 0 1.8-0.1 2.8 0.1 0.8 0.2 1.6 0.2 2.4-0.3 0.4-0.2 0.8-0.5 0.8-1 0-0.5-0.4-1-0.9-1.2-0.7-0.3-1.4-0.6-2.2-0.7-0.8-0.1-1.6-0.3-2.5-0.5 0.9-0.8 1.7-1.6 3-1.5 0.8 0.1 1.6-0.1 2.4-0.3 2.7-0.5 5.5-0.7 8.3-1 2-0.2 3.9-0.7 5.9-0.9C41.6 8 43.8 7.4 46.1 7c0.9-0.1 1.7 0 2.6 0 0.4 0 0.8 0.2 1 0.7 0.2 0.5 0.2 0.9-0.4 1.2-0.9 0.5-1.8 0.9-2.8 1.2-1.7 0.4-3.5 0.8-5.2 1.2-1.2 0.2-2.2 0.6-3.1 1.5-0.3 0.3-0.5 0.6-0.4 1 0.1 0.5 0.5 0.7 0.9 0.8 0.5 0.1 1.1 0.1 1.6 0 2.9-0.3 5.9-0.2 8.8 0 0.6 0 0.8 0.3 1 0.8 0.4 1.1 0 2.2-1 2.8-1.2 0.8-2.6 1.1-4 1.4-1.8 0.4-3.7 0.6-5.5 1-1.3 0.3-2.7 0.5-3.9 1-0.4 0.2-0.8 0.4-1.1 0.8-0.3 0.4-0.2 0.8 0.4 1 0.4 0.1 0.8 0.1 1.3 0 1.5-0.3 2.9-0.1 4.4 0.2 0.9 0.2 1.1 0.5 1.1 1.4 0 0.6-0.4 1-1.1 1.1-0.9 0.1-1.8 0.2-2.7 0.3-2.1 0.1-4.2 0.7-6.3 0.9-2 0.2-4 0.4-6 0.7-0.4 0-0.8 0.1-1.1 0.2-2.6 0.6-5.1-0.1-7.4-1.2-0.5-0.2-0.8-0.6-1.1-1C15.4 24.9 15.7 24 16.7 23.7zM51.3 63.3c-0.1-0.9 0-1.6 0.4-2.4 0.2-0.3 0.4-0.6-0.3-0.7-0.2 0-0.1-0.3 0-0.4 0.6-0.4 1.2 0 1.2 0.7 0 1.1-0.2 2.2-0.5 3.2-0.5 2.1-1.2 4.2-2.1 6.2-0.1 0.1-0.2 0.3-0.3 0.3 0.8-2.8 2.1-5.5 2.3-8.4C51.6 62.2 51.6 62.8 51.3 63.3zM42.3 75.4c0.7-1.4 1.3-2.9 2.3-4.1 0 0 0.1 0 0.2 0 0.2 0.2 0.1 0.4 0 0.6-0.6 1.2-1.3 2.5-1.8 3.7-0.1 0.2-0.2 0.6-0.6 0.4C42.3 75.9 42.2 75.7 42.3 75.4zM42 73.7c-0.1-1.1 0-1.3 1-1.7C42.7 72.5 42.4 73 42 73.7zM43.4 75.9c0.3-0.7 0.6-1.4 0.9-2 0.4-0.7 0.6-1.4 1.1-2 0 0 0.1 0 0.1 0 0 0 0 0.1 0.1 0.1-0.6 1.2-1.1 2.5-1.6 3.8 0.3 0 0.3-0.4 0.4-0.3 1.6 0.1 1.9-1.3 2.7-2.2 0.1-0.1 0.2-0.3 0.5-0.3-0.2 0.8-0.7 1.4-1.2 2-0.5 0.5-1.2 0.9-1.7 1.5-0.2 0.3-0.6 0.3-1 0.2C43.3 76.6 43.1 76.4 43.4 75.9zM47.3 67c0.3-0.6 0.6-1.2 0.9-1.8 0.3-0.6 0.5-1.3 1.2-1.9-0.7 2.5-1.9 4.6-2.9 7-0.6-0.7-0.7-1.3-1-1.9-0.1-0.2 0-0.4 0.1-0.6 1-1.3 1.7-2.9 2.9-4.1-0.7 1.6-1.6 3.2-2.1 5C46.9 68.2 47 67.5 47.3 67zM46.4 71.9c0.2-0.2 0.2-0.4 0.2-0.6 0-0.6 0.2-1 0.6-1.4 0 1.9-0.6 3.7-2 5-0.4-0.2-0.2-0.5-0.1-0.6C45.4 73.4 45.6 72.4 46.4 71.9zM47.6 68.8c0 0 0-0.1 0-0.2 0-0.1 0.1-0.1 0.1-0.1 0.1 0 0.1 0 0.1 0.1C47.7 68.7 47.7 68.8 47.6 68.8zM50.2 64.7c0 2.1-1.2 5-2.4 6.4C48.6 69 49.4 66.9 50.2 64.7zM50.2 61.1c0.1 0.5-0.1 0.7-0.4 0.9C49.6 61.5 49.8 61.3 50.2 61.1zM49.9 64c0.1-0.8 0.1-1.5 0.7-1.9C50.5 62.7 50.5 63.4 49.9 64zM48.1 63.3c-0.8 1.3-1.8 2.5-2.6 3.9-0.1 0.2-0.2 0.5-0.5 0.4-0.4-0.2-0.1-0.5 0-0.7 0.4-0.6 0.7-1.1 1.1-1.7 1-1.4 2-2.8 3.1-4.2 0.3-0.4 0.5-0.8 1.2-1.2C49.6 61.2 48.8 62.2 48.1 63.3zM46.7 63.9c-0.6 0.8-1.2 1.5-1.7 2.4-0.1 0.2-0.3 0.4-0.4 0.6-0.2 0.2-0.4 0.1-0.5 0-0.2-0.1-0.2-0.3 0-0.5 1.5-2 3.1-4 4.6-6 0.2-0.2 0.4-0.4 0.9-0.5C48.5 61.2 47.6 62.6 46.7 63.9zM31.1 72.3c0.5-0.7 1.1-1.3 1.7-1.9 0.3-0.3 0.7-0.6 0.8-1.1-0.8 0.6-1.6 1.3-2.3 2.1-0.6 0.7-1.4 1.3-2.1 2-0.6 0.6-1.3 0.8-2.1 0.5-0.1-0.5 0.3-0.7 0.5-0.9 2.3-2.4 4.7-4.8 7.1-7.1 0 0 0 0 0 0 1.2-1 2.3-2.2 3.5-3.2 1-0.9 2.1-1.8 3-2.9 0.1-0.2 0.3-0.2 0.5-0.1 0.2 0.2 0 0.3-0.1 0.5-0.2 0.2-0.3 0.3-0.5 0.5-2.5 2.3-4.9 4.6-7.3 7-0.1 0.1-0.1 0.2-0.1 0.3 0.9-0.3 1.5-1.2 2.1-1.8 1.9-1.7 3.7-3.5 5.5-5.2 0.3-0.3 0.6-0.4 1-0.6 0 0-0.1 0-0.1 0 0.6-1 1.4-0.5 2.2-0.4-2 1-3.1 3-4.8 4.3-0.2 0.1-0.3 0.3-0.4 0.4-0.6 1.5-1.8 2.4-3 3.5-0.5 0.4-1.1 0.8-1.3 1.6 2.1-1.8 4.2-3.6 6.1-5.7 1.2-1.3 2.5-2.5 3.8-3.7 0.2-0.2 0.4-0.4 0.8-0.4 0 0.4-0.3 0.5-0.5 0.7-2.1 2-4.3 3.8-6.2 6-1.6 1.8-3.4 3.2-5.2 4.8-0.6 0.5-1.3 0.9-2.1 1.3 0.2-0.9 1.2-1.1 1.6-1.8C32.6 71 32 71.8 31.1 72.3zM24.6 71.4c0.6-0.5 1.1-1.2 1.6-1.8 0.3-0.3 0.5-0.6 1.2-0.6-0.4 0.8-1.1 1.2-1.6 1.8-0.5 0.6-1 1.1-1.5 1.7C24.3 72.1 24.3 71.7 24.6 71.4zM24.5 71c0.1-0.7 0.4-1.1 0.9-1.4l0.2 0.2L24.5 71zM25.5 71.7c0.5-0.7 1.1-1.3 1.7-1.8 0.3-0.2 0.6-0.5 0.9-0.7 0.1-0.1 0.3-0.1 0.4 0 0.1 0.2 0 0.3-0.1 0.4-0.7 0.7-1.5 1.5-2.2 2.2-0.2 0.2-0.3 0.3-0.5 0.5-0.7 0.7-0.7 0.7-1.5 0.2 0 0 0 0 0 0C24.8 72.4 25.1 72.1 25.5 71.7zM27.3 71.2c0.5-0.6 0.9-1.4 2.1-1.4-1.2 1.3-2.4 2.4-3.7 3.4C25.9 72.3 26.7 71.9 27.3 71.2zM29.1 70.7c-0.1 0.6-0.5 0.7-0.6 1C28.3 71.2 28.8 71.1 29.1 70.7zM28.1 71.8c0.1-0.1 0.3 0 0.4 0-0.8 0.6-1.3 1.4-2.2 1.8C26.8 72.9 27.4 72.2 28.1 71.8zM23 61.9c-0.7 0.7-1.4 1.5-2 2.2-0.7 0.7-1.3 1.4-2 2.1-0.7 0.7-1.3 1.3-2 2 0.4-1.1 1.1-1.9 1.9-2.7 1.6-1.8 3.1-3.7 4.7-5.4 0.3-0.3 0.5-0.5 0.9-0.4 0.5 0.1 1-0.1 1.6 0.2-1.8 2.4-4.1 4.2-6.3 6.1 1.8-2 3.5-3.9 5.3-5.9C24.1 60.4 23.6 61.3 23 61.9zM15.5 60.2c-0.5 1.1-1.2 1.9-2.2 2.6C13.6 61.7 14.4 60.7 15.5 60.2zM13.2 61.3c-0.1-1-0.1-1 1-0.9C13.9 60.8 13.5 61 13.2 61.3zM16.6 61.9c-0.4 1.1-1.3 1.9-2.2 2.6C14.9 63.4 15.6 62.5 16.6 61.9zM15.7 61.6c0.4-0.5 0.8-0.9 1.2-1.3 0.3-0.3 0.6-0.4 1.1-0.4 0.1 0 0.2 0.1 0.2 0.2 0 0.1-0.1 0.2-0.1 0.2-0.9-0.2-1.1 0.6-1.6 1C16.2 61.4 16.1 61.6 15.7 61.6zM18.7 60.6c-1.1 1.7-2.4 3.4-3.8 5C15.3 64.3 17.7 61.1 18.7 60.6zM18.4 63.7c0 0.3-0.2 0.5-0.7 0.9C17.9 64.1 18.1 63.8 18.4 63.7zM17.4 64c0.1-0.4 0.3-0.8 0.7-1C18.1 63.5 17.8 63.7 17.4 64zM17 66.5c0.1-0.2 0.3-0.5 0.4-0.7 1.5-1.8 2.8-3.8 4.5-5.5 0 0 0-0.1 0-0.2-0.3-0.2-0.4 0-0.5 0.2-0.7 0.8-1.3 1.6-2 2.4-0.3 0.3-0.5 0.7-0.9 0.9 0.3-1.4 1.4-2.4 2.2-3.6 0.1-0.1 0.3-0.3 0.5-0.3 0.6 0 1.3-0.2 2 0-0.3 0.8-0.9 1.3-1.3 1.9-1.3 1.6-2.7 3.2-4.1 4.7-0.1 0.1-0.2 0.2-0.3 0.3-0.1 0.1-0.2 0.1-0.3 0C16.9 66.7 16.9 66.6 17 66.5zM23 63.7c1.3-1.1 2.4-2.3 3.5-3.5 0.4-0.4 0.8-0.6 1.4-0.3-0.2 0.6-1 0.9-1.1 1.5-1.1 0.8-2 1.8-3.1 2.7-0.5 0.4-1 0.9-1.9 1C22.1 64.5 22.5 64.1 23 63.7zM25.1 63.3c0.6-0.6 1.3-1 1.6-1.9 0.6-0.3 1-0.8 1.5-1.2 0.4-0.3 0.9-0.5 1.4-0.3 0.1 0.2 0 0.3-0.1 0.4-1.2 1-2.3 2.2-3.4 3.3-0.8 0.8-1 0.8-2 0.8C24.3 63.8 24.8 63.6 25.1 63.3zM27.8 62.4c0.5-0.5 1-1.1 1.6-1.5 0.6-0.4 1-1.2 1.9-1.1-1.6 1.3-2.7 3.1-4.3 4.3-0.2 0.1-0.4 0.1-0.6 0C26.6 63.3 27.3 62.9 27.8 62.4zM27.9 63.9c1.3-1.4 2.6-2.8 4.1-4 0.5-0.4 0.9-0.4 1.6-0.1-1.7 1.6-3.2 3.1-4.7 4.5-0.1 0.1-0.3 0.3-0.5 0.3-0.3 0.1-0.5 0-0.7-0.2C27.6 64.2 27.8 64 27.9 63.9zM31.7 41.6c0.1-1.5 0.3-3.1 0.1-4.6-0.1-0.5 0.2-0.7 0.7-0.7 0.3 0 0.5 0 0.8-0.1 1.2-0.1 1.5 0.4 0.9 1.4-0.4 0.6-0.4 1 0 1.5 0.3 0.3 0.2 0.9 0.1 1.4-0.2 1.8-0.4 3.7-0.5 5.5-0.1 2-0.1 4-0.1 5.9 0 2.1-0.3 4.3-0.1 6.4 0.1 0.5-0.2 0.8-0.7 0.8-0.1 0-0.2 0-0.3 0-1.1 0-1 0-1-1.1-0.2-3.1 0.2-6.1 0.2-9.1C32 46.5 31.6 44.1 31.7 41.6zM29.2 64.5c1.6-1.5 3-3.2 4.8-4.5 0.1-0.1 0.2-0.3 0.5-0.2 0.1 0.1 0.3 0.2 0.3 0.4-0.1 0.1-0.2 0.2-0.3 0.3-1.7 1.4-3.1 3.1-4.6 4.5-0.2 0.2-0.4 0.7-0.8 0.3C28.6 65.1 28.9 64.7 29.2 64.5zM30.3 65.2c1.5-1.5 2.9-3.2 4.7-4.5 0.2-0.1 0.4-0.2 0.5-0.5 0.1-0.6 0.5-0.4 0.9-0.3-0.4 0.8-4.1 4.4-6.7 6.4C29.8 65.7 30.1 65.4 30.3 65.2zM34.2 64c1.2-1.2 2.5-2.3 3.7-3.5 0.4-0.4 0.8-0.8 1.6-1-0.5 0.7-1 1.2-1.5 1.6-2.3 2.2-4.6 4.4-6.8 6.7 0 0 0 0 0 0-0.3 0.1-0.5 0.5-0.9 0.6-0.2-0.5-0.2-0.9 0.2-1.2 0.2-0.2 0.4-0.5 0.5-0.7-0.3 0.2-0.6 0.5-1.2 0.6 0.4-1 1.2-1.5 1.8-2.2 0.6-0.7 1.4-1.2 2-1.9 0.6-0.7 1.4-1.1 2-1.7 0.6-0.6 1.2-1.4 2.2-1.7-0.1 0.7-0.5 0.9-0.8 1.2-0.9 0.9-1.9 1.8-2.9 2.7-0.4 0.3-0.8 0.6-0.9 1.1C33.7 64.6 33.9 64.3 34.2 64zM39.9 59.8c0.1-0.2 0.4-0.2 0.6-0.1 0.2 0.2 0 0.4-0.1 0.5-1 1-2.1 1.9-3 2.9-0.9 0.9-2 1.7-2.6 2.9-1.2 0.5-1.9 1.6-2.8 2.4-0.6 0.5-1.1 1-1.8 1.6 0-1 1-1.2 1.1-2 0.5-0.1 0.8-0.5 1.2-0.8 2.1-2 4.1-4 6.2-6C39 60.6 39.7 60.5 39.9 59.8zM43.4 63.1c-1.1 1.1-2 2.5-3.4 3.3C41 65.2 41.9 63.9 43.4 63.1zM43.8 63.4c0.7-0.8 1.5-1.6 2.3-2.4 0.1-0.1 0.3-0.2 0.3-0.3 0.2-0.3 0-0.8 0.5-0.9 0.4-0.1 0.7-0.1 1.6 0.1-1.7 0.3-2.3 1.7-3.2 2.7-0.9 0.9-1.6 2-2.4 2.9-0.4 0.4-0.7 0.9-1.6 0.7C42 65.1 43 64.3 43.8 63.4zM43 65.9c0.2-0.3 0.5-0.6 0.7-0.9 1.3-1.4 2.4-3 3.8-4.3 0.1 0.4-0.1 0.5-0.2 0.7-1.1 1.5-2.2 3-3.3 4.4-0.2 0.2-0.3 0.5-0.6 0.6-0.2 0.1-0.3 0-0.4-0.1C42.9 66.1 42.9 65.9 43 65.9zM48.9 48c-2.2 0.3-4.3 1.1-6.4 1.5-1.8 0.4-3.7 0.5-5.5 0.7-0.4 0.1-0.9 0.1-1.4-0.1 0.2-0.8 1.2-0.8 1.4-1.7-0.7 0.1-1.1 0.6-1.6 0.9-0.6 0.4-0.8 0.9-0.6 1.6 0.1 0.3-0.1 0.5-0.4 0.8-0.2-0.8-0.1-1.6 0.1-2.4 0.2-0.8 1.1-1.1 1.7-1.8-0.8-0.3-1 0.7-1.7 0.5-0.1-1.3 1.3-1.4 1.9-2.3-0.6 0-0.9 0.5-1.3 0.6-0.2 0.1-0.4 0.3-0.6 0-0.1-0.2 0-0.6 0.2-0.6 0.7-0.1 0.9-0.8 1.5-1.1 0.1-0.1 0.2-0.2 0.2-0.4C35.9 44 35.5 45 35 44.5c0-0.5 0.6-0.7 0.8-1.2-0.4-0.3-0.7 0.3-1.2 0 0.1-0.5 0.6-0.7 0.9-1.1 0.3-0.3 0.8-0.6 1.3-1-0.5-0.2-0.8 0.1-1.1 0.3-0.3 0.2-0.6 0.4-1 0.7-0.2-1.4 1-1.8 1.7-2.7-0.7 0-1 0.7-1.6 0.6-0.3-1.1 1-1.2 1.3-1.9-0.6-0.2-0.8 0.4-1.3 0.3-0.3-0.5 0.1-0.7 0.5-1 0.2-0.1 0.5-0.2 0.4-0.5-0.1-0.3-0.3 0-0.5 0C35 37.1 35 37 35 36.9c0-0.2 0.1-0.3 0.3-0.3 0.2 0 0.4 0.1 0.5 0.2 1 0.5 1.7 1.2 2.5 1.8 2 1.7 3.9 3.4 6 5 1.7 1.4 3.5 2.6 5.2 4.1C49.4 48 49.1 47.9 48.9 48zM2.6 44.2C2.7 42.4 3 40.7 3.3 39c0.1-0.4 0.4-0.6 0.8-0.6 0.9-0.1 1.8-0.1 2.7-0.2 2.1-0.3 4.3-0.7 6.5-0.6 1.4 0.1 2.9 0.1 4.2 0.7 0.9 0.4 1.7 1.2 2.5 1.9 0.4 0.4 0 1.2-0.6 1.5-1.1 0.4-2.3 0.8-3.5 1-2.4 0.5-4.8 0.6-7.1 1.3C8 44 7.4 44.4 6.8 44.7c-0.1-0.4-0.3-0.8-0.9-0.5-0.8 0.4-1.7 0.6-2.7 0.6C2.8 44.8 2.5 44.7 2.6 44.2zM7.6 51c-1.3 0.1-2.6 0.3-3.9 0.7-1.1 0.3-1.2 0.2-1.3-1 0-0.2 0-0.3 0-0.5 0-0.4 0.1-0.6 0.5-0.6 2.3-0.1 4.5-0.9 6.8-0.9 0.2 0 0.4-0.1 0.4-0.4-1.2-0.2-2.4 0.1-3.5 0.3-1.1 0.2-2.3 0.4-3.4 0.5-0.6 0-0.8-0.2-0.7-0.7 0-0.9 0-1.7 0.1-2.6 0-0.3 0.1-0.6 0.5-0.7 1-0.1 2-0.2 2.9-0.6 0.3-0.1 0.6-0.1 0.9 0.1-0.6 1.1-0.1 2 1.2 2 1 0 2 0 3-0.3 0.8-0.2 1.5 0 2.2 0.3 0.6 0.3 1.1 0.7 1.1 1.5 0 0.8-0.5 1.1-1.2 1.4C11.3 50.4 9.5 50.8 7.6 51zM87 71c-0.5 1.6-1.5 2.5-3.4 2.2-0.6-0.1-1.2 0-1.7 0.1 0 0-0.1 0-0.2 0.2 0.6 0.3 1.2 0.1 1.8 0.1 0.6 0 1.2-0.1 2 0.2-0.6 1.1-1.3 2.1-2 3-0.2 0.3-0.7 0.2-1 0.2-1.1-0.1-2.2-0.2-3.2-0.3-0.6-0.1-1.1-0.1-1.7 0.1 1.7 0.5 3.5 0.4 5.1 0.7 0.1 0.3 0 0.5-0.2 0.7-0.9 1.2-2 2.4-3 3.5-0.7 0.8-1.7 1-2.7 1.1-2.1 0.1-4.1 0.4-6.1 0.4-0.4 0-0.8 0-1.4 0.4 1.6 0.1 2.9-0.2 4.3-0.2 1.4 0 2.8-0.2 4.1-0.4 0.2 0.3 0 0.4-0.1 0.5-2.6 2.4-5.4 4.4-8.4 6.2-0.2 0.1-0.5 0.3-0.8 0.2l0 0c-0.4 0.5-1 0.7-1.6 1-5.2 2.5-10.7 4-16.5 4.3-4.6 0.3-9.1-0.1-13.5-1.2-0.4-0.1-0.8-0.1-1.3-0.5 3.7-0.3 7.2-0.1 10.7-0.6-0.5-0.2-0.9-0.3-1.4-0.2-0.9 0.3-1.8 0.3-2.8 0.2-2.1-0.2-4.3 0.2-6.4 0.2-1.4 0-2.7-0.2-4-0.7-5.2-2.1-9.8-4.9-13.9-8.7-0.4-0.3-1-0.6-0.9-1.1 0.2-0.5 0.9-0.3 1.4-0.3 3 0.1 6-0.3 9-0.6 1.7-0.1 3.4-0.2 5.1-0.2 0.4 0 0.8 0.1 1.3-0.3-0.3-0.2-0.5-0.1-0.8-0.1-3.4 0-6.8 0.4-10.2 0.7-1.5 0.2-2.9-0.1-4.4 0-0.3 0-0.7-0.1-1 0-1 0.5-1.6-0.1-2.2-0.8-0.4-0.4-0.7-0.9-1.2-1.2-1-1.4-2-2.8-3.1-4.2-0.2-0.3-0.5-0.6-0.6-1.1 2.3-0.3 4.6 0.1 6.9-0.2 0-0.3-0.1-0.4-0.2-0.4-1 0.1-2-0.1-3 0.1-1.2 0.2-2.4-0.1-3.6 0-0.8 0.1-1.1-0.6-1.4-1.3 0.3-0.3 0.5-0.1 0.7-0.1 1.5 0.1 2.9-0.3 4.2-1 1.3-0.8 2.6-1.7 3.7-2.8 2.3-2.2 5.1-3.7 8.4-4 2.4-0.2 4.3 2.1 3.6 4.3-0.5-0.2-0.9-0.4-1.4-0.5-1.8-0.5-4 0.7-4.4 2.5-0.2 0.6 0.1 1.2 0.5 1.7 0.6 0.7 1.3 1.2 2.2 1.4 1.7 0.4 3.3 0.3 4.8-0.6 2.1-1.3 4-2.7 5.7-4.3 0.9-0.9 1.9-1.7 3.1-2.2 0.2-0.1 0.4-0.2 0.7-0.2 2-0.6 3.6 0.2 4.6 2.2 0.3 0.5 0.5 1 0.6 1.6-0.2 0.3-0.5 0.2-0.6 0-0.3-0.4-0.7-0.3-1-0.2-2 0.4-3.5 2.5-2.9 4.5 0.2 0.9 0.8 1.5 1.7 1.9 1.9 0.8 3.7 0.5 5.4-0.4 1.4-0.7 2.5-1.6 3.4-2.9 0.8-1.3 1.8-2.5 2.6-3.7 0.5-0.7 1.1-1.2 2.1-1.1 1.1 0.1 2.3-0.2 3.5-0.1 0.1 0 0.2-0.1 0.2-0.4-1.2-0.1-2.4 0.2-3.7 0 1.4-1.4 4.8-1.4 6.3-0.1-1 0.3-1.6 1.1-2.4 1.6-1.3 0.9-1.8 3.3-1.3 4.8 0.2 0.6 0.7 1 1.3 1.3 1.6 0.8 3.1 0.5 4.6-0.3 0.6-0.3 1.1-0.7 1.6-1.2 1.9-1.9 3.8-3.8 5.6-5.8 0.4-0.4 0.7-0.7 1.4-0.4 0.6 0.2 1.4 0 2.1 0 0.1-0.3-0.1-0.4-0.4-0.4-0.5 0-1 0.1-1.6-0.3 1.2-0.2 2.3-0.2 3.3-0.1 0.1 0.5-0.3 0.6-0.6 0.8-1.2 0.9-2.5 1.9-3.3 3.2C72.8 72 72.7 72 72.4 72c-0.5-0.1-0.9-0.1-1.4-0.1-0.3 0-0.6-0.1-0.9 0.3 0.7 0 1.3 0.1 1.9 0.1 0.4 0 0.6 0.2 0.6 0.6 0 0.3 0 0.5 0.1 0.8 0.3 1.2 1.3 1.8 2.5 1.4 1.7-0.5 3.2-1.4 4.6-2.4 1.9-1.4 3.9-2.5 6.3-2.9 0.4-0.1 0.8-0.3 1.1 0.1C87.5 70.3 87.1 70.6 87 71zM87.2 38.4c-0.9 0.2-1.9 0.5-2.8 0.5-1.4 0-2.9 0.1-4.2 0.7-0.4 0.2-0.8 0.4-1.1 0.8-0.3 0.3-0.5 0.6-0.3 1 0.2 0.4 0.5 0.6 0.9 0.6 0.4 0 0.8 0 1.2-0.1 0.6-0.1 1.2-0.2 1.8-0.3 0.3 0 0.7 0 1 0.1 0.9 0.2 1.1 0.8 0.5 1.4-0.6 0.7-1.3 1.4-2.3 1.6-2.7 0.5-5.4 1.3-8.1 1.4-3.6 0.2-7.2 0.7-10.8 0.8-1.2 0-2.3 0.3-3.5 0.2-0.5 0-1-0.1-1.4-0.4-0.7-0.5-0.8-1-0.2-1.6 0.3-0.3 0.6-0.5 1-0.7 0.9-0.5 1.8-0.8 2.8-1.1 0.6-0.2 1.2-0.4 1.7-0.8 0.6-0.5 0.7-1 0.1-1.5-0.6-0.5-1.3-0.7-2.1-0.5-1.8 0.5-3.8 0.3-5.6 0.6-1.9 0.3-3.7-0.1-5.6-0.3-0.8-0.1-1.4-0.7-1.9-1.2-0.4-0.4-0.2-1.1 0.4-1.3 0.3-0.1 0.6-0.2 0.9-0.2 1.5-0.1 3-0.3 4.5-0.4 1.5-0.1 3-0.4 4.5-0.8 0.6-0.2 1.3-0.4 1.9-0.6 0.2-0.1 0.4-0.1 0.6-0.2 0.9-0.4 1.3-1 1.2-1.5-0.2-0.7-1.2-1.5-1.9-1.4-1.4 0.1-2.8 0.3-4.3 0.5-1.6 0.2-3.2 0.3-4.7 0.2-0.2 0-0.3 0-0.5 0-0.4-0.1-0.7-0.2-0.8-0.5-0.2-0.4 0.2-0.8 0.5-1 1-0.8 2.1-1.2 3.3-1.1 0.8 0 1.6 0 2.1 0 4.5-0.3 8.7-0.4 12.9-0.9 1.8-0.2 3.6 0 5.3 0 2.3 0 4.5-0.1 6.7-0.3 0.6 0 1.2-0.1 1.7 0.2 0.8 0.3 0.9 0.8 0.3 1.4-0.6 0.5-1.2 1-2 1.1-1.3 0.3-2.6 0.7-3.9 0.8-0.9 0-1.3 0.7-1.9 1.1-0.3 0.2-0.1 0.5 0 0.7 0.3 0.4 0.8 0.5 1.2 0.5 0.9 0 1.8-0.1 2.6-0.3 1.3-0.3 2.6-0.4 3.9-0.2 1.3 0.2 2.6 0.2 3.9 0.6 0.3 0.1 0.5 0.1 0.8 0.2 0.3 0.2 0.8 0.3 0.8 0.7C88 37.8 87.8 38.2 87.2 38.4z" fill="#ffffff" data-fill-palette-color="quaternary"></path><path d="M42.4 60.3c0.2-0.2 0.4-0.3 0.8-0.1-0.5 0.5-0.9 0.9-1.4 1.3-1.2 1.2-2.3 2.4-3.5 3.6-1.3 1.3-2.7 2.6-4.1 3.9C34.2 69 34 69 33.9 69.1c1.1-1.4 2.5-2.5 3.7-3.8 1.4-1.5 2.9-2.9 4.3-4.3C42.1 60.7 42.2 60.5 42.4 60.3 42.4 60.2 42.4 60.3 42.4 60.3z" fill="#ffffff" data-fill-palette-color="quaternary"></path><path d="M53.7 88.5c-1.9-0.1-3.8 0-5.7 0-1.9 0-3.8 0.4-5.7 0.4-1.9 0-3.8 0.3-5.8 0.1 1-0.6 2.2-0.2 3.3-0.3 1.2-0.1 2.3-0.2 3.5-0.3 1.2-0.1 2.4-0.3 3.6-0.3 1.2 0 2.3-0.1 3.5-0.1 1.1 0 2.3 0.1 3.4 0.1C53.8 88.2 53.7 88.3 53.7 88.5z" fill="#ffffff" data-fill-palette-color="quaternary"></path><path d="M65 83.8c-4.4 0.5-8.7 0.4-13.1 0.7 2.2-0.6 4.4-0.5 6.6-0.6C60.6 83.7 62.8 83.8 65 83.8z" fill="#ffffff" data-fill-palette-color="quaternary"></path><path d="M55.7 80.2c-5.4-0.1-10.8 0.1-16.5 0.4C40.5 80 52.6 79.7 55.7 80.2z" fill="#ffffff" data-fill-palette-color="quaternary"></path><path d="M36.2 85.8c-1.3 0.6-10.4 1.8-11.7 1.6 0-0.1 0.1-0.2 0.1-0.2 0.2-0.1 0.4-0.1 0.7-0.1C29 86.9 32.5 86 36.2 85.8z" fill="#ffffff" data-fill-palette-color="quaternary"></path><path d="M68.3 89.7c-0.7 0.2-1.4 0.2-2.1 0.6-0.2 0.1-0.4 0.1-0.7 0.1-2 0.1-4 0.3-6 0.7-0.8 0.2-1.6 0.2-2.4-0.1 1.3-0.2 2.7-0.4 4-0.5 1.5-0.1 2.9-0.4 4.4-0.4 0.8 0 1.5-0.5 2.2-0.6C68 89.4 68.2 89.4 68.3 89.7 68.3 89.8 68.3 89.7 68.3 89.7z" fill="#ffffff" data-fill-palette-color="quaternary"></path><path d="M64.2 78.7c1.6-0.5 7.5-0.9 8.3-0.7 0 0.4-0.3 0.3-0.5 0.2-0.4-0.1-0.8-0.2-1.1-0.1-1.7 0.4-3.5 0.4-5.2 0.6C65.2 78.8 64.6 79 64.2 78.7z" fill="#ffffff" data-fill-palette-color="quaternary"></path><path d="M50.7 77.6c0.6-0.6 1.1-0.6 1.6-0.5 0.9 0.3 1.8 0.2 2.8 0.2 1.1-0.1 2.2 0.1 3.4-0.2-0.2 0.2-0.1 0-0.1 0.2 0 0 0 0.1 0 0.1-0.1 0.1-0.3 0.1-0.4 0.1C55.6 77.4 53.2 77.8 50.7 77.6z" fill="#ffffff" data-fill-palette-color="quaternary"></path><path d="M34.1 76.3c1.4-0.4 5.7-0.4 6.3 0C38.4 75.9 36.4 76.9 34.1 76.3z" fill="#ffffff" data-fill-palette-color="quaternary"></path><path d="M20 77.5c1.9-0.3 3.7-0.4 5.8-0.4-0.5 0.6-1 0.3-1.5 0.4-0.5 0.1-1 0.1-1.5 0.1-0.5 0-0.9 0.1-1.4 0.1-0.5 0-1 0.1-1.4 0.1C20 77.6 20 77.6 20 77.5z" fill="#ffffff" data-fill-palette-color="quaternary"></path><path d="M41.8 70.3c-0.7 0.6-2.8 0.6-4.1 0.2 0-0.3 0.2-0.4 0.5-0.3 0.4 0 0.9 0 1.3 0.1C40.2 70.3 41 70.4 41.8 70.3z" fill="#ffffff" data-fill-palette-color="quaternary"></path><path d="M23.2 70c-1.2 0.3-4.2 0.3-5-0.1C19 69.7 22.6 69.7 23.2 70z" fill="#ffffff" data-fill-palette-color="quaternary"></path><path d="M23 66.3c0.1-0.2 0.3-0.2 0.5-0.2 1.2 0 2.3 0 3.5 0.1 0.2 0 0.4 0 0.4 0.3 0 0.2-0.2 0.2-0.4 0.2-1.2 0-2.4 0-3.6-0.1C23.2 66.5 23 66.5 23 66.3z" fill="#ffffff" data-fill-palette-color="quaternary"></path><path d="M18.6 25.6c0.7-0.4 1.4-0.5 2.1-0.6 1-0.1 2.1-0.1 3.1-0.2 1.7-0.1 3.5-0.3 5.2-0.4 1.3-0.1 2.6-0.1 3.9-0.2 0.2 0 0.3 0 0.3 0.2 0 0.3-0.2 0.3-0.4 0.3-1.5-0.1-3 0-4.5 0.3-0.3 0.1-0.7 0-1 0-0.4 0-0.9-0.1-1.3 0-1.6 0.4-3.2 0.3-4.7 0.4C20.4 25.5 19.5 25.8 18.6 25.6z" fill="#ffffff" data-fill-palette-color="quaternary"></path><path d="M36.6 14.3c-0.3 0.4-0.8 0.4-1.2 0.4-2.9 0-5.7 0.4-8.6 0.7C30.1 14.8 33.3 14.4 36.6 14.3z" fill="#ffffff" data-fill-palette-color="quaternary"></path><path d="M37.2 18.3c0.6-0.1 1.3-0.3 1.9-0.3 1.6-0.1 3.2-0.3 4.8-0.5 0.2 0 0.4-0.1 0.5 0.2 0 0.2-0.1 0.3-0.3 0.3-2.3 0-4.6 0.5-6.9 0.6C37.2 18.4 37.2 18.3 37.2 18.3z" fill="#ffffff" data-fill-palette-color="quaternary"></path><path d="M32.6 11.1c-1.3 0.6-2.7 0.4-4 0.6-1.4 0.1-2.7 0.3-4.3 0 0.6-0.5 1.2-0.1 1.7-0.1 0.5 0 1.1 0 1.6-0.1 0.6-0.1 1.1-0.2 1.7-0.2 0.5 0 1.1 0 1.6-0.1 0.6-0.1 1.1-0.2 1.7-0.3C32.6 11 32.6 11.1 32.6 11.1z" fill="#ffffff" data-fill-palette-color="quaternary"></path><path d="M47.4 8.4c-0.5 0.5-1.1 0.4-1.7 0.5-1.2 0.1-2.5 0.3-3.7 0.4-0.2 0-0.4 0.1-0.6 0-0.2 0-0.5 0.1-0.5-0.3 0-0.2 0.3-0.2 0.5-0.2 0.4 0 0.8 0 1.3 0C44.3 8.8 45.8 8.6 47.4 8.4z" fill="#ffffff" data-fill-palette-color="quaternary"></path><path d="M26.8 20.3c0.7-0.3 3.6-0.6 4.5-0.4C30.5 20.2 27.4 20.4 26.8 20.3z" fill="#ffffff" data-fill-palette-color="quaternary"></path><path d="M52.1 32.9c0.3-0.5 0.7-0.6 1.2-0.6 3.9-0.1 7.7-0.2 11.6-0.5 1-0.1 2-0.1 3.2 0-0.8 0.6-1.6 0.2-2.3 0.3-0.7 0.1-1.5 0.1-2.2 0.2-0.8 0-1.5 0.1-2.3 0.1-0.8 0-1.5 0.2-2.3 0.1-0.8 0-1.6 0.1-2.3 0-0.7-0.1-1.5 0.1-2.2 0.1C53.6 32.8 52.8 32.8 52.1 32.9z" fill="#ffffff" data-fill-palette-color="quaternary"></path><path d="M75.9 43.9c-0.2 0.3-0.4 0.3-0.7 0.3-4.8 0.2-9.6 1.1-14.7 1.5C61.9 45.1 74.5 43.7 75.9 43.9z" fill="#ffffff" data-fill-palette-color="quaternary"></path><path d="M63.9 39.1c3.5-0.1 7.1-0.5 10.6-0.3 0 0.1 0 0.2 0 0.3-1.8 0-3.5 0.1-5.3 0.1C67.4 39.2 65.6 39.7 63.9 39.1z" fill="#ffffff" data-fill-palette-color="quaternary"></path><path d="M49.6 39.6c0.6-0.4 1.3-0.5 1.9-0.5 2-0.1 3.9-0.1 5.9-0.2 0.2 0 0.4 0 0.4 0.3 0 0.2-0.2 0.2-0.4 0.2-1.6 0-3.2 0-4.9 0C51.6 39.5 50.6 39.7 49.6 39.6z" fill="#ffffff" data-fill-palette-color="quaternary"></path><path d="M72.9 34.7c-2.2-0.3-4.2 0.3-6.5 0.1 0.8-0.6 1.5-0.3 2.2-0.4 0.7-0.1 1.5-0.1 2.2-0.1C72.4 34.3 72.4 34.3 72.9 34.7z" fill="#ffffff" data-fill-palette-color="quaternary"></path><path d="M81.8 37.4c1.5-0.1 2.9-0.4 4.6-0.1-0.9 0.6-1.6 0.2-2.3 0.3-0.7 0.1-1.5 0-2.3 0C81.8 37.5 81.8 37.5 81.8 37.4z" fill="#ffffff" data-fill-palette-color="quaternary"></path><path d="M4.1 40.3c0.3-0.4 0.7-0.4 1-0.4 2.4-0.2 4.7-0.5 7.1-0.6 1.5-0.1 2.9 0 4.4-0.2 0.3 0 0.5 0 0.8 0 0.2 0 0.4 0 0.4 0.3 0 0.2-0.2 0.3-0.3 0.2-0.7-0.1-1.3 0.1-2 0.1-1.4-0.1-2.7 0.1-4.1 0.1-1.3 0-2.7 0.2-4 0.4-0.9 0.1-1.8 0.2-2.6 0.4C4.5 40.5 4.3 40.5 4.1 40.3z" fill="#ffffff" data-fill-palette-color="quaternary"></path><path d="M31.2 70.2c0.1 0.4-0.2 0.6-0.4 0.8-0.9 0.9-1.8 1.8-2.7 2.6C28.3 72.8 29.7 71.4 31.2 70.2L31.2 70.2z" fill="#ffffff" data-fill-palette-color="quaternary"></path><path d="M31.2 70.2c0.8-0.8 1.6-1.7 2.6-2.3 0 0 0 0 0 0C33.1 68.9 32.3 69.7 31.2 70.2 31.2 70.2 31.2 70.2 31.2 70.2z" fill="#ffffff" data-fill-palette-color="quaternary"></path><path d="M35.1 69.5c-0.5 0.5-0.9 0.9-1.6 1.2C33.8 70.1 34.3 69.7 35.1 69.5z" fill="#ffffff" data-fill-palette-color="quaternary"></path><path d="M31.1 66.5c0.7-0.6 1.3-1.5 2.3-1.9C32.8 65.5 32.1 66.2 31.1 66.5z" fill="#ffffff" data-fill-palette-color="quaternary"></path></svg></g></svg></g><g><path d="M29.143 202.903v0c-1.226 0.476-2.47 0.775-3.732 0.898-1.262 0.123-2.503 0.086-3.723-0.11-1.218-0.19-2.395-0.535-3.532-1.037-1.137-0.501-2.188-1.133-3.153-1.895-0.971-0.76-1.838-1.65-2.601-2.671-0.763-1.021-1.382-2.144-1.858-3.37v0c-0.478-1.232-0.778-2.479-0.901-3.741-0.123-1.262-0.082-2.501 0.123-3.717 0.196-1.22 0.544-2.399 1.046-3.536 0.501-1.137 1.135-2.192 1.901-3.166 0.769-0.967 1.66-1.831 2.675-2.592 1.014-0.761 2.135-1.379 3.36-1.854v0c1.232-0.478 2.482-0.78 3.75-0.905 1.262-0.123 2.5-0.085 3.714 0.114 1.216 0.204 2.393 0.557 3.53 1.058 1.137 0.501 2.189 1.136 3.157 1.906 0.959 0.765 1.818 1.655 2.578 2.669 0.761 1.014 1.38 2.138 1.858 3.369v0c0.476 1.226 0.776 2.473 0.901 3.741 0.125 1.268 0.092 2.508-0.1 3.719-0.198 1.214-0.548 2.389-1.049 3.527-0.501 1.137-1.135 2.185-1.9 3.143-0.762 0.965-1.651 1.828-2.665 2.589-1.021 0.763-2.147 1.383-3.379 1.861zM27.145 197.753v0c1.132-0.439 2.118-1.07 2.957-1.892 0.837-0.828 1.481-1.755 1.933-2.779 0.455-1.033 0.705-2.133 0.748-3.301 0.041-1.174-0.158-2.327-0.598-3.46v0c-0.444-1.144-1.076-2.133-1.895-2.966-0.82-0.833-1.746-1.478-2.779-1.933-1.029-0.464-2.131-0.717-3.306-0.758-1.174-0.041-2.327 0.158-3.459 0.598v0c-1.132 0.439-2.111 1.067-2.938 1.885-0.827 0.817-1.467 1.746-1.92 2.784-0.455 1.033-0.708 2.135-0.758 3.306-0.043 1.168 0.157 2.324 0.602 3.468v0c0.439 1.132 1.07 2.118 1.892 2.957 0.826 0.831 1.755 1.474 2.788 1.93 1.031 0.449 2.128 0.7 3.292 0.751 1.162 0.046 2.309-0.151 3.441-0.59z" fill="#35185a" data-fill-palette-color="primary"></path><path d="M62.577 249.316l-0.862 5.61c-1.702 0.024-3.357-0.253-4.964-0.832-1.612-0.574-3.075-1.413-4.39-2.517v0c-1.012-0.85-1.875-1.798-2.591-2.845-0.715-1.047-1.275-2.153-1.681-3.318-0.416-1.164-0.677-2.365-0.785-3.602-0.108-1.238-0.06-2.468 0.143-3.691 0.208-1.218 0.574-2.404 1.097-3.559 0.523-1.155 1.208-2.236 2.053-3.243v0c0.85-1.012 1.801-1.878 2.852-2.598 1.047-0.715 2.153-1.28 3.316-1.695 1.169-0.411 2.372-0.671 3.61-0.779 1.238-0.108 2.468-0.06 3.691 0.143 1.213 0.204 2.397 0.567 3.552 1.091 1.155 0.523 2.238 1.21 3.25 2.059v0c1.315 1.104 2.397 2.398 3.244 3.881 0.852 1.478 1.409 3.063 1.671 4.754v0l-5.37 1.81c-0.056-1.195-0.36-2.33-0.911-3.406-0.546-1.071-1.283-1.998-2.213-2.778v0c-0.94-0.789-1.97-1.352-3.089-1.688-1.12-0.336-2.242-0.455-3.366-0.357-1.125 0.088-2.213 0.397-3.262 0.927-1.049 0.529-1.964 1.259-2.745 2.189v0c-0.781 0.93-1.337 1.952-1.668 3.066-0.331 1.114-0.446 2.236-0.343 3.365 0.098 1.125 0.407 2.212 0.927 3.262 0.524 1.045 1.256 1.962 2.196 2.751v0c0.93 0.781 1.969 1.347 3.119 1.7 1.159 0.351 2.332 0.452 3.519 0.3z" fill="#35185a" data-fill-palette-color="primary"></path><path d="M118.692 274.592l-1.312 5.408-18.511-4.489 6.548-26.999 18.511 4.489-1.309 5.398-13.103-3.178-1.312 5.408 8.869 2.151-1.311 5.407-8.869-2.151-1.305 5.378z" fill="#35185a" data-fill-palette-color="primary"></path><path d="M163.819 267.114l10.815-2.577-1.29-5.413c-0.177-0.744-0.485-1.412-0.922-2.004-0.438-0.592-0.96-1.075-1.566-1.448-0.606-0.373-1.275-0.62-2.007-0.742-0.727-0.13-1.46-0.107-2.198 0.069v0c-0.744 0.177-1.411 0.488-2.001 0.932-0.592 0.438-1.075 0.96-1.448 1.566-0.373 0.606-0.624 1.273-0.754 2-0.124 0.726-0.097 1.461 0.081 2.205v0zM178.757 257.834l3.863 16.209-5.413 1.29-1.29-5.413-10.815 2.578 1.29 5.412-5.393 1.286-3.863-16.209c-0.356-1.494-0.407-2.968-0.154-4.422 0.255-1.447 0.752-2.776 1.491-3.986 0.739-1.211 1.697-2.256 2.873-3.136 1.184-0.875 2.524-1.491 4.018-1.847v0c1.494-0.356 2.964-0.41 4.409-0.161 1.447 0.255 2.78 0.755 3.998 1.498 1.212 0.746 2.255 1.707 3.129 2.885 0.882 1.183 1.501 2.521 1.857 4.016z" fill="#35185a" data-fill-palette-color="primary"></path><path d="M220.285 216.724l18.392 20.822-4.457 3.937-20.141-6.616 12.11 13.71-4.171 3.684-18.391-20.822 4.457-3.937 20.148 6.624-12.117-13.718z" fill="#35185a" data-fill-palette-color="primary"></path><path d="M264.943 178.866l5.216 1.937-7.488 20.157-16.708-18.851-4.128 11.111-5.206-1.934 7.487-20.157 16.71 18.82z" fill="#35185a" data-fill-palette-color="primary"></path><path d="M7.872 143.359c0-1.783 1.446-3.229 3.228-3.229 1.783 0 3.229 1.446 3.229 3.229 0 1.783-1.446 3.229-3.229 3.229-1.783 0-3.229-1.446-3.228-3.229z" fill="#35185a" data-fill-palette-color="primary"></path><path d="M261.439 143.359c0-1.783 1.446-3.229 3.229-3.229 1.783 0 3.229 1.446 3.229 3.229 0 1.783-1.446 3.229-3.229 3.229-1.783 0-3.229-1.446-3.229-3.229z" fill="#35185a" data-fill-palette-color="primary"></path></g></svg></g></svg></g></svg></g><g></g></svg></g><defs></defs></svg><rect width="280" height="280" fill="none" stroke="none" visibility="hidden"></rect></g></svg></g></svg>