<?xml version="1.0" encoding="utf-8"?>
<!-- Generator: Adobe Illustrator 27.5.0, SVG Export Plug-In . SVG Version: 6.00 Build 0)  -->
<svg version="1.1" xmlns="http://www.w3.org/2000/svg" xmlns:xlink="http://www.w3.org/1999/xlink" x="0px" y="0px"
	 viewBox="0 0 500 500" style="enable-background:new 0 0 500 500;" xml:space="preserve">
<g id="Background_Complete">
	<g>
		<g>
			<g>
				<path style="fill:#EBEBEB;" d="M462.404,249.295c0,0,10.128,0.577,6.29,22.968c-3.839,22.392-7.688,34.084-7.688,34.084
					s-0.351,5.03,3.641,4.55c3.993-0.479,11.893-4.395,15.015-0.299c3.237,4.248,1.165,9.853-4.657,16.017
					c-5.822,6.164-18.081,20.136-19.185,21.404c-1.084,1.244-1.778,3.751,0.994,3.86c2.772,0.109,22.08-3.764,23.37,5.507
					c1.29,9.272-17.75,23.778-19.801,25.404c-2.051,1.626-2.301,2.788-1.712,4.008c0.589,1.22,6.956-0.693,12.492-1.57
					c5.537-0.877,12.111-0.923,12.406,4.489c0.296,5.412-9.141,19.915-39.086,32.565l-14.259,4.953l-11.63-9.727
					c-23.62-22.334-27.381-39.224-25.209-44.189c2.172-4.966,8.314-2.62,13.193,0.139s10.173,6.782,11.152,5.845
					c0.979-0.937,1.152-2.113-0.2-4.354c-1.352-2.241-14.107-22.496-9.652-30.729c4.454-8.233,21.184,2.156,23.819,3.024
					c2.635,0.868,2.862-1.723,2.282-3.268c-0.59-1.574-7.181-18.954-10.476-26.766c-3.295-7.812-3.273-13.787,1.246-16.633
					c4.358-2.744,10.388,3.69,13.96,5.537c3.572,1.847,5.004-2.987,5.004-2.987s0.488-12.3,4.733-34.618
					c4.245-22.318,14.163-19.188,14.163-19.188"/>
			</g>
		</g>
		<g>
			<g>
				<g>
					<path style="fill:#E0E0E0;" d="M430.533,430.856c3.053-16.403,7.989-45.647,12.358-70.733
						c4.367-25.077,8.342-47.778,11.312-64.195c1.491-8.193,2.698-14.829,3.537-19.438c0.413-2.28,0.735-4.058,0.958-5.286
						c0.102-0.591,0.181-1.048,0.238-1.377c0.051-0.311,0.065-0.472,0.065-0.472s-0.046,0.155-0.112,0.463
						c-0.068,0.327-0.162,0.781-0.283,1.368c-0.243,1.224-0.594,2.997-1.045,5.27c-0.902,4.578-2.16,11.211-3.684,19.413
						c-3.053,16.403-7.08,39.097-11.447,64.174c-4.369,25.086-9.253,54.338-12.223,70.754"/>
				</g>
			</g>
		</g>
		<g>
			<g>
				<g>
					<path style="fill:#E0E0E0;" d="M468.83,316.522c-0.02-0.026-0.345,0.187-0.917,0.593c-0.574,0.404-1.387,1.012-2.384,1.772
						c-1.991,1.525-4.688,3.702-7.62,6.157c-2.883,2.432-5.49,4.631-7.484,6.314c-0.903,0.753-1.666,1.387-2.279,1.898
						c-0.54,0.446-0.83,0.705-0.811,0.731c0.019,0.026,0.346-0.184,0.922-0.586c0.573-0.406,1.387-1.014,2.376-1.785
						c1.977-1.545,4.644-3.756,7.576-6.212c2.899-2.41,5.52-4.59,7.526-6.257c0.908-0.749,1.674-1.38,2.29-1.888
						C468.561,316.809,468.849,316.548,468.83,316.522z"/>
				</g>
			</g>
		</g>
		<g>
			<g>
				<g>
					<path style="fill:#E0E0E0;" d="M446.063,333.373c0.103-0.079-4.139-5.836-9.475-12.858c-5.337-7.024-9.746-12.654-9.849-12.575
						c-0.103,0.078,4.139,5.835,9.476,12.859C441.551,327.821,445.96,333.452,446.063,333.373z"/>
				</g>
			</g>
		</g>
		<g>
			<g>
				<g>
					<path style="fill:#E0E0E0;" d="M441.093,372.193c0.018-0.027-0.29-0.277-0.862-0.707c-0.652-0.483-1.467-1.087-2.434-1.803
						c-2.052-1.525-4.878-3.644-7.91-6.095c-3.039-2.445-5.711-4.754-7.633-6.441c-0.905-0.793-1.668-1.461-2.278-1.997
						c-0.541-0.469-0.85-0.717-0.873-0.694c-0.022,0.024,0.245,0.317,0.748,0.827c0.503,0.51,1.244,1.234,2.18,2.109
						c1.867,1.753,4.514,4.108,7.561,6.561c3.041,2.458,5.906,4.541,8.011,6c1.056,0.725,1.917,1.302,2.523,1.684
						C440.732,372.02,441.075,372.219,441.093,372.193z"/>
				</g>
			</g>
		</g>
		<g>
			<g>
				<g>
					<path style="fill:#E0E0E0;" d="M465.04,361.483c-0.013-0.03-0.361,0.087-0.979,0.323c-0.707,0.284-1.576,0.632-2.6,1.042
						c-2.187,0.898-5.196,2.169-8.508,3.6c-3.313,1.431-6.301,2.75-8.454,3.727c-1.001,0.465-1.85,0.858-2.541,1.179
						c-0.596,0.288-0.919,0.461-0.906,0.491c0.013,0.03,0.361-0.087,0.979-0.323c0.707-0.283,1.575-0.631,2.6-1.042
						c2.187-0.899,5.196-2.17,8.509-3.601c3.312-1.431,6.3-2.75,8.453-3.726c1.001-0.464,1.85-0.858,2.541-1.179
						C464.729,361.686,465.053,361.513,465.04,361.483z"/>
				</g>
			</g>
		</g>
		<g>
			<g>
				<g>
					<path style="fill:#E0E0E0;" d="M465.006,396.311c-0.012-0.03-0.456,0.123-1.248,0.426c-0.869,0.345-1.991,0.789-3.337,1.323
						c-2.81,1.136-6.679,2.735-10.94,4.528c-4.263,1.793-8.112,3.441-10.889,4.655c-1.323,0.589-2.425,1.08-3.279,1.46
						c-0.77,0.354-1.19,0.564-1.177,0.594c0.013,0.03,0.456-0.123,1.248-0.426c0.87-0.345,1.991-0.789,3.337-1.323
						c2.81-1.136,6.679-2.735,10.942-4.529c4.262-1.793,8.11-3.44,10.887-4.654c1.323-0.589,2.425-1.08,3.279-1.46
						C464.598,396.551,465.018,396.341,465.006,396.311z"/>
				</g>
			</g>
		</g>
		<g>
			<g>
				<g>
					<path style="fill:#E0E0E0;" d="M434.785,408.779c0.02-0.026-0.362-0.353-1.069-0.923c-0.775-0.618-1.785-1.425-3.003-2.398
						c-2.534-2.027-6.022-4.84-9.785-8.054c-3.769-3.209-7.104-6.204-9.503-8.389c-1.153-1.048-2.11-1.919-2.843-2.586
						c-0.674-0.608-1.058-0.933-1.08-0.91c-0.022,0.023,0.318,0.393,0.954,1.042c0.636,0.649,1.57,1.573,2.744,2.696
						c2.343,2.249,5.649,5.288,9.425,8.503c3.769,3.22,7.297,5.997,9.885,7.959c1.297,0.978,2.354,1.758,3.097,2.281
						C434.347,408.527,434.766,408.805,434.785,408.779z"/>
				</g>
			</g>
		</g>
	</g>
	<g>
		<g>
			<path style="fill:#EBEBEB;" d="M108.148,109.649c-1.086-5.377,2.306-10.486,8.183-11.674c5.751-1.16,10.739,2.256,11.826,7.635
				c1.086,5.377-2.16,10.589-7.911,11.75C114.368,118.548,109.233,115.026,108.148,109.649z M93.133,30.813l18.509-3.741
				l8.697,59.16l-12.384,2.5L93.133,30.813z"/>
		</g>
		<g>
			<path style="fill:#EBEBEB;" d="M124.582,117.539c-1.198,0.726-2.544,1.251-3.989,1.543c-3.264,0.66-6.514,0.076-9.153-1.643
				c-2.609-1.7-4.39-4.343-5.016-7.442c-1.307-6.471,2.797-12.382,9.557-13.745c6.615-1.335,12.59,2.539,13.897,9.01
				c0.625,3.092,0.041,6.207-1.645,8.77C127.29,115.465,126.045,116.653,124.582,117.539z M113.626,100.872
				c-2.906,1.761-4.451,4.985-3.756,8.429c0.437,2.167,1.676,4.012,3.489,5.192c1.861,1.213,4.183,1.618,6.538,1.143
				c2.285-0.462,4.203-1.716,5.4-3.537c1.173-1.783,1.577-3.964,1.137-6.142c-0.911-4.507-5.105-7.199-9.755-6.26
				C115.549,99.925,114.522,100.329,113.626,100.872z M121.25,87.735c-0.17,0.103-0.359,0.178-0.563,0.22l-12.384,2.5
				c-0.917,0.185-1.818-0.381-2.05-1.287L91.43,31.248c-0.119-0.467-0.042-0.962,0.214-1.37c0.255-0.407,0.669-0.693,1.14-0.788
				l18.509-3.741c0.473-0.096,0.965,0.007,1.359,0.284c0.394,0.278,0.658,0.705,0.728,1.183l8.697,59.161
				C122.183,86.694,121.837,87.379,121.25,87.735z M109.243,86.678l9.115-1.84l-8.185-55.677l-14.878,3.008L109.243,86.678z"/>
		</g>
	</g>
	<g>
		<g>
			<path style="fill:#EBEBEB;" d="M144.579,102.9c1.134-2.747,4.202-4.023,7.205-2.785c2.938,1.213,4.152,4.256,3.018,7.004
				c-1.134,2.747-4.167,4.114-7.105,2.901C144.693,108.782,143.445,105.648,144.579,102.9z M161.611,62.892l9.458,3.901
				l-13.938,29.248l-6.328-2.612L161.611,62.892z"/>
		</g>
		<g>
			<path style="fill:#EBEBEB;" d="M149.594,111.411c-0.758-0.035-1.522-0.205-2.261-0.51c-1.668-0.688-2.955-1.931-3.623-3.501
				c-0.661-1.552-0.665-3.279-0.012-4.862c1.365-3.307,4.995-4.728,8.449-3.302c3.38,1.396,4.9,4.941,3.535,8.248
				c-0.652,1.58-1.855,2.806-3.387,3.45C151.439,111.294,150.52,111.453,149.594,111.411z M149.693,100.604
				c-1.839-0.084-3.507,0.9-4.234,2.66c-0.457,1.107-0.456,2.311,0.003,3.389c0.471,1.108,1.394,1.991,2.597,2.487
				c1.168,0.482,2.409,0.496,3.497,0.037c1.066-0.448,1.906-1.308,2.365-2.421c0.95-2.303-0.125-4.78-2.501-5.761
				C150.844,100.758,150.26,100.63,149.693,100.604z M157.088,96.992c-0.107-0.005-0.215-0.028-0.32-0.071l-6.327-2.612
				c-0.469-0.194-0.703-0.72-0.534-1.198l10.807-30.537c0.087-0.246,0.271-0.446,0.51-0.552c0.238-0.106,0.51-0.11,0.751-0.011
				l9.458,3.901c0.242,0.1,0.432,0.294,0.526,0.538c0.094,0.244,0.083,0.516-0.029,0.752L157.991,96.45
				C157.822,96.806,157.46,97.009,157.088,96.992z M152.003,92.894l4.657,1.922l13.117-27.526l-7.603-3.136L152.003,92.894z"/>
		</g>
	</g>
</g>
<g id="Background_Simple" style="display:none;">
	<path style="display:inline;fill:#EBEBEB;" d="M469.75,105.825c-16.832-31.424-54.64-49.13-90.059-45.088l-10.551,2.719
		c-30.447,8.361-52.031,39.805-51.43,71.373c0.6,31.568,21.748,61.131,50.4,74.397c26.367,12.208,59.566,10.7,82.648-6.949
		C479.078,180.623,486.582,137.249,469.75,105.825z"/>
</g>
<g id="Screen">
	<g>
		<g>
			<path style="fill:#FAFAFA;" d="M432.456,433.517H47.544V150.314c0-9.895,8.021-17.915,17.915-17.915H414.54
				c9.895,0,17.915,8.021,17.915,17.915V433.517z"/>
		</g>
		<g>
			<g>
				<path style="fill:#263238;" d="M377.352,361.705c0,0.144-62.102,0.26-138.691,0.26c-76.616,0-138.705-0.117-138.705-0.26
					c0-0.144,62.089-0.26,138.705-0.26C315.25,361.444,377.352,361.561,377.352,361.705z"/>
			</g>
		</g>
		<g>
			<g>
				<path style="fill:#263238;" d="M351.868,378.965c0,0.144-47.457,0.26-105.984,0.26c-58.547,0-105.994-0.117-105.994-0.26
					s47.446-0.26,105.994-0.26C304.412,378.705,351.868,378.821,351.868,378.965z"/>
			</g>
		</g>
		<g>
			<rect x="47.544" y="132.398" style="fill:#E8505B;" width="384.912" height="116.772"/>
		</g>
		<g>
			<path style="fill:#263238;" d="M432.956,434.017H47.044V131.898h385.912V434.017z M48.044,433.017h383.912V132.898H48.044
				V433.017z"/>
		</g>
		<g>
			<path style="fill:#263238;" d="M206.746,286.5l-8.642,26.414h-6.565l-5.812-17.887l-5.999,17.887H173.2l-8.679-26.414h6.339
				l5.962,18.565l6.226-18.565h5.66l6.038,18.716l6.151-18.716H206.746z"/>
			<path style="fill:#263238;" d="M226.186,301.329v11.585h-5.509v-2.528c-1.094,1.849-3.208,2.83-6.188,2.83
				c-4.754,0-7.585-2.642-7.585-6.15c0-3.585,2.528-6.075,8.717-6.075h4.679c0-2.528-1.509-4-4.679-4
				c-2.151,0-4.377,0.717-5.849,1.887l-2.113-4.113c2.227-1.585,5.509-2.453,8.754-2.453
				C222.601,292.311,226.186,295.179,226.186,301.329z M220.299,306.499v-2.075h-4.038c-2.754,0-3.623,1.019-3.623,2.377
				c0,1.472,1.245,2.453,3.321,2.453C217.922,309.254,219.62,308.348,220.299,306.499z"/>
			<path style="fill:#263238;" d="M244.112,292.311v5.434c-0.49-0.037-0.868-0.075-1.321-0.075c-3.245,0-5.396,1.773-5.396,5.66
				v9.585h-5.887v-20.302h5.623v2.68C238.566,293.33,240.981,292.311,244.112,292.311z"/>
			<path style="fill:#263238;" d="M268.378,301.292v11.622h-5.886v-10.717c0-3.283-1.51-4.792-4.113-4.792
				c-2.83,0-4.868,1.735-4.868,5.472v10.037h-5.886v-20.302h5.622v2.378c1.585-1.736,3.962-2.68,6.717-2.68
				C264.755,292.311,268.378,295.104,268.378,301.292z"/>
			<path style="fill:#263238;" d="M272.985,286.5c0-1.85,1.472-3.283,3.66-3.283c2.188,0,3.66,1.358,3.66,3.17
				c0,1.962-1.472,3.396-3.66,3.396C274.457,289.783,272.985,288.349,272.985,286.5z M273.702,292.613h5.887v20.302h-5.887V292.613z
				"/>
			<path style="fill:#263238;" d="M305.815,301.292v11.622h-5.886v-10.717c0-3.283-1.51-4.792-4.113-4.792
				c-2.83,0-4.868,1.735-4.868,5.472v10.037h-5.887v-20.302h5.623v2.378c1.584-1.736,3.962-2.68,6.717-2.68
				C302.193,292.311,305.815,295.104,305.815,301.292z"/>
			<path style="fill:#263238;" d="M332.309,292.613v16.905c0,7.547-4.076,11.018-11.397,11.018c-3.849,0-7.585-0.943-9.962-2.792
				l2.34-4.227c1.735,1.396,4.565,2.302,7.17,2.302c4.15,0,5.962-1.887,5.962-5.547v-0.868c-1.548,1.698-3.773,2.528-6.415,2.528
				c-5.623,0-10.151-3.887-10.151-9.81c0-5.925,4.528-9.811,10.151-9.811c2.83,0,5.17,0.943,6.717,2.906v-2.604H332.309z
				 M326.498,302.122c0-2.982-2.227-4.982-5.32-4.982c-3.095,0-5.358,2-5.358,4.982c0,2.98,2.264,4.98,5.358,4.98
				C324.271,307.103,326.498,305.103,326.498,302.122z"/>
			<path style="fill:#263238;" d="M336.916,309.783c0-1.925,1.51-3.358,3.623-3.358s3.622,1.434,3.622,3.358
				c0,1.887-1.509,3.434-3.622,3.434S336.916,311.669,336.916,309.783z M337.029,286.5h7.019l-1.169,17.244h-4.68L337.029,286.5z"/>
		</g>
		<g>
			<path style="fill:#263238;" d="M199.909,336.956h-5.713l-1.23,2.739h-1.128l4.688-10.254h1.069l4.688,10.254h-1.143
				L199.909,336.956z M199.514,336.078l-2.461-5.508l-2.461,5.508H199.514z"/>
			<path style="fill:#263238;" d="M207.75,339.227c-0.41,0.366-1.025,0.542-1.626,0.542c-1.45,0-2.256-0.82-2.256-2.241v-4.658
				h-1.377v-0.879h1.377v-1.685h1.04v1.685h2.344v0.879h-2.344v4.6c0,0.908,0.469,1.406,1.333,1.406c0.425,0,0.85-0.132,1.143-0.396
				L207.75,339.227z"/>
			<path style="fill:#263238;" d="M213.494,339.227c-0.41,0.366-1.025,0.542-1.626,0.542c-1.45,0-2.256-0.82-2.256-2.241v-4.658
				h-1.377v-0.879h1.377v-1.685h1.04v1.685h2.344v0.879h-2.344v4.6c0,0.908,0.469,1.406,1.333,1.406c0.425,0,0.85-0.132,1.143-0.396
				L213.494,339.227z"/>
			<path style="fill:#263238;" d="M221.816,336.165h-6.445c0.117,1.611,1.348,2.681,3.032,2.681c0.938,0,1.772-0.337,2.358-1.011
				l0.586,0.674c-0.689,0.82-1.758,1.26-2.974,1.26c-2.402,0-4.043-1.641-4.043-3.926c0-2.285,1.597-3.911,3.765-3.911
				c2.168,0,3.735,1.597,3.735,3.911C221.831,335.931,221.816,336.048,221.816,336.165z M215.371,335.389h5.464
				c-0.132-1.509-1.23-2.564-2.739-2.564C216.602,332.826,215.503,333.88,215.371,335.389z"/>
			<path style="fill:#263238;" d="M231.048,335.228v4.468h-1.04v-4.365c0-1.626-0.85-2.461-2.314-2.461
				c-1.655,0-2.695,1.025-2.695,2.783v4.043h-1.04v-7.705h0.996v1.421c0.557-0.938,1.597-1.479,2.93-1.479
				C229.759,331.932,231.048,333.016,231.048,335.228z"/>
			<path style="fill:#263238;" d="M237.936,339.227c-0.41,0.366-1.025,0.542-1.626,0.542c-1.45,0-2.256-0.82-2.256-2.241v-4.658
				h-1.377v-0.879h1.377v-1.685h1.04v1.685h2.344v0.879h-2.344v4.6c0,0.908,0.469,1.406,1.333,1.406c0.425,0,0.85-0.132,1.143-0.396
				L237.936,339.227z"/>
			<path style="fill:#263238;" d="M239.593,329.559c0-0.396,0.337-0.732,0.762-0.732c0.425,0,0.762,0.322,0.762,0.718
				c0,0.425-0.322,0.762-0.762,0.762C239.93,330.306,239.593,329.969,239.593,329.559z M239.827,331.991h1.04v7.705h-1.04V331.991z"
				/>
			<path style="fill:#263238;" d="M242.992,335.843c0-2.285,1.67-3.911,3.926-3.911s3.911,1.626,3.911,3.911
				c0,2.285-1.655,3.926-3.911,3.926S242.992,338.128,242.992,335.843z M249.775,335.843c0-1.802-1.216-3.003-2.857-3.003
				s-2.871,1.201-2.871,3.003c0,1.802,1.23,3.003,2.871,3.003S249.775,337.645,249.775,335.843z"/>
			<path style="fill:#263238;" d="M260.046,335.228v4.468h-1.04v-4.365c0-1.626-0.85-2.461-2.315-2.461
				c-1.655,0-2.695,1.025-2.695,2.783v4.043h-1.04v-7.705h0.996v1.421c0.557-0.938,1.597-1.479,2.93-1.479
				C258.758,331.932,260.046,333.016,260.046,335.228z"/>
			<path style="fill:#263238;" d="M274.524,335.843c0,2.344-1.641,3.926-3.838,3.926c-1.23,0-2.285-0.527-2.93-1.523v4.292h-1.04
				v-10.547h0.996v1.523c0.63-1.025,1.699-1.582,2.974-1.582C272.883,331.932,274.524,333.514,274.524,335.843z M273.484,335.843
				c0-1.787-1.245-3.003-2.871-3.003c-1.641,0-2.871,1.216-2.871,3.003c0,1.802,1.23,3.003,2.871,3.003
				C272.239,338.846,273.484,337.645,273.484,335.843z"/>
			<path style="fill:#263238;" d="M276.651,328.827h1.04v10.869h-1.04V328.827z"/>
			<path style="fill:#263238;" d="M287.302,336.165h-6.445c0.117,1.611,1.348,2.681,3.032,2.681c0.938,0,1.773-0.337,2.358-1.011
				l0.586,0.674c-0.688,0.82-1.758,1.26-2.974,1.26c-2.402,0-4.043-1.641-4.043-3.926c0-2.285,1.597-3.911,3.765-3.911
				c2.168,0,3.735,1.597,3.735,3.911C287.317,335.931,287.302,336.048,287.302,336.165z M280.857,335.389h5.464
				c-0.132-1.509-1.23-2.564-2.739-2.564C282.087,332.826,280.989,333.88,280.857,335.389z"/>
			<path style="fill:#263238;" d="M295.039,334.92v4.775h-0.996v-1.201c-0.469,0.791-1.377,1.274-2.651,1.274
				c-1.743,0-2.813-0.908-2.813-2.241c0-1.187,0.762-2.183,2.974-2.183h2.446v-0.469c0-1.318-0.747-2.036-2.183-2.036
				c-0.996,0-1.934,0.352-2.564,0.908l-0.469-0.776c0.776-0.659,1.919-1.04,3.135-1.04
				C293.911,331.932,295.039,332.928,295.039,334.92z M293.999,337.381v-1.26h-2.417c-1.494,0-1.978,0.586-1.978,1.377
				c0,0.893,0.718,1.45,1.948,1.45C292.724,338.949,293.589,338.392,293.999,337.381z"/>
			<path style="fill:#263238;" d="M296.799,338.817l0.469-0.82c0.615,0.483,1.655,0.864,2.739,0.864c1.465,0,2.065-0.498,2.065-1.26
				c0-2.007-4.995-0.425-4.995-3.472c0-1.26,1.084-2.197,3.047-2.197c0.996,0,2.08,0.278,2.725,0.718l-0.454,0.835
				c-0.674-0.469-1.48-0.659-2.271-0.659c-1.392,0-2.007,0.542-2.007,1.274c0,2.08,4.995,0.513,4.995,3.472
				c0,1.333-1.172,2.197-3.179,2.197C298.66,339.769,297.429,339.359,296.799,338.817z"/>
			<path style="fill:#263238;" d="M311.744,336.165h-6.445c0.117,1.611,1.348,2.681,3.032,2.681c0.938,0,1.772-0.337,2.358-1.011
				l0.586,0.674c-0.688,0.82-1.758,1.26-2.974,1.26c-2.402,0-4.043-1.641-4.043-3.926c0-2.285,1.597-3.911,3.765-3.911
				s3.735,1.597,3.735,3.911C311.758,335.931,311.744,336.048,311.744,336.165z M305.298,335.389h5.464
				c-0.132-1.509-1.23-2.564-2.739-2.564C306.529,332.826,305.43,333.88,305.298,335.389z"/>
		</g>
		<g>
			<g>
				<path style="fill:#FFFFFF;" d="M215.49,225.675c-3.619,0-6.863-1.866-8.684-4.997c-1.826-3.14-1.837-6.895-0.031-10.046
					l28.794-50.227c1.806-3.15,5.053-5.038,8.685-5.049c0.011,0,0.021,0,0.032,0c3.619,0,6.863,1.866,8.684,4.997l29.1,50.049
					c1.825,3.14,1.837,6.895,0.03,10.046c-1.807,3.15-5.053,5.038-8.685,5.049l-57.895,0.177
					C215.511,225.675,215.501,225.675,215.49,225.675z M244.286,158.356c-0.007,0-0.015,0-0.023,0
					c-2.547,0.008-4.824,1.332-6.091,3.542l-28.794,50.227c-1.267,2.21-1.259,4.844,0.021,7.046
					c1.277,2.195,3.553,3.504,6.091,3.504c0.007,0,0.015,0,0.022,0l57.894-0.177c2.548-0.008,4.825-1.332,6.092-3.541
					c1.267-2.21,1.259-4.844-0.021-7.046l-29.101-50.049C249.1,159.665,246.824,158.356,244.286,158.356z"/>
			</g>
			<g>
				<path style="fill:#FFFFFF;" d="M240.277,209.419c-0.015-2.062,1.604-3.702,3.856-3.719c2.205-0.016,3.799,1.604,3.813,3.665
					c0.015,2.062-1.556,3.751-3.761,3.767C241.934,213.149,240.292,211.481,240.277,209.419z M240.4,179.261l7.095-0.05
					l-1.04,22.445l-4.747,0.034L240.4,179.261z"/>
			</g>
			<g>
				<g>
					<path style="fill:#FFFFFF;" d="M208.109,237.019c-0.01,0.028-0.481-0.112-1.3-0.455c-0.819-0.341-1.972-0.924-3.296-1.808
						c-2.639-1.738-5.928-4.938-7.894-9.437c-1.962-4.502-2.073-9.09-1.553-12.207c0.251-1.572,0.608-2.814,0.915-3.646
						c0.305-0.834,0.523-1.274,0.55-1.263c0.106,0.033-0.696,1.846-1.1,4.96c-0.419,3.082-0.248,7.556,1.666,11.947
						c1.918,4.387,5.083,7.554,7.627,9.343C206.281,236.275,208.157,236.919,208.109,237.019z"/>
				</g>
			</g>
			<g>
				<g>
					<path style="fill:#FFFFFF;" d="M195.759,235.78c-0.024,0.027-0.26-0.155-0.669-0.508c-0.415-0.346-0.968-0.902-1.603-1.632
						c-1.273-1.453-2.782-3.714-3.831-6.49c-1.04-2.781-1.395-5.476-1.395-7.408c-0.003-0.967,0.046-1.75,0.13-2.283
						c0.075-0.535,0.133-0.827,0.169-0.823c0.092,0.009-0.03,1.194,0.069,3.095c0.094,1.898,0.498,4.518,1.514,7.236
						c1.027,2.714,2.448,4.95,3.628,6.44C194.95,234.902,195.822,235.712,195.759,235.78z"/>
				</g>
			</g>
			<g>
				<g>
					<path style="fill:#FFFFFF;" d="M296.773,200.954c0.035-0.01,0.167,0.378,0.379,1.093c0.112,0.356,0.233,0.796,0.326,1.317
						c0.099,0.52,0.244,1.108,0.305,1.774c0.192,1.322,0.261,2.917,0.187,4.684c-0.109,1.764-0.381,3.697-0.903,5.672
						c-0.545,1.97-1.284,3.777-2.079,5.355c-0.826,1.563-1.689,2.907-2.521,3.952c-0.388,0.544-0.81,0.979-1.157,1.379
						c-0.343,0.404-0.669,0.723-0.946,0.973c-0.543,0.511-0.853,0.779-0.878,0.753c-0.075-0.075,1.136-1.195,2.686-3.325
						c0.783-1.058,1.6-2.4,2.388-3.948c0.758-1.563,1.469-3.341,2.004-5.275c0.512-1.939,0.793-3.833,0.926-5.565
						c0.099-1.734,0.07-3.304-0.073-4.613C297.152,202.559,296.671,200.981,296.773,200.954z"/>
				</g>
			</g>
			<g>
				<g>
					<path style="fill:#FFFFFF;" d="M303.321,211.959c0.061-0.003,0.186,1,0.14,2.63c-0.043,1.628-0.306,3.882-0.973,6.285
						c-0.673,2.402-1.614,4.468-2.419,5.883c-0.804,1.419-1.43,2.212-1.48,2.178c-0.07-0.045,0.443-0.906,1.154-2.349
						c0.712-1.442,1.582-3.491,2.243-5.852c0.655-2.361,0.97-4.565,1.107-6.167C303.232,212.963,303.238,211.961,303.321,211.959z"
						/>
				</g>
			</g>
		</g>
	</g>
</g>
<g id="Character">
	<g>
		<g>
			<g>
				<path style="fill:#E8505B;" d="M47.77,285.179c0,0,21.724-5.773,23.038-4.727c6.662,5.307,41.882,1.152,41.882,1.152
					l33.612,9.488c0,0,5.453,40.258,9.152,56.036c2.455,10.472-6.783,26.212-6.783,26.212l-11.86,42.966l10.249,16.94l-99.29-0.044
					v-33.735V285.179z"/>
			</g>
			<g>
				<g>
					<path style="fill:#FAFAFA;" d="M134.216,331.484c0,0-0.299,0.042-0.87,0.09c-0.571,0.052-1.414,0.101-2.495,0.234
						c-2.164,0.226-5.283,0.674-9.093,1.465c-3.814,0.772-8.308,1.906-13.311,3.123c-2.502,0.605-5.135,1.225-7.885,1.772
						c-1.377,0.264-2.771,0.564-4.226,0.697c-0.362,0.039-0.724,0.093-1.089,0.12l-1.101,0.03c-0.736,0.015-1.478,0.061-2.222,0.008
						c-5.967-0.2-11.553-1.302-16.597-2.317c-5.045-1.044-9.558-2.11-13.36-2.941c-3.803-0.829-6.888-1.466-9.04-1.789
						c-1.071-0.197-1.913-0.272-2.479-0.359c-0.568-0.077-0.865-0.134-0.865-0.134s1.205,0.064,3.362,0.372
						c2.161,0.287,5.257,0.892,9.068,1.694c3.811,0.804,8.329,1.848,13.371,2.875c5.04,0.998,10.62,2.089,16.547,2.286
						c0.74,0.053,1.474,0.007,2.204-0.008l1.091-0.029c0.361-0.026,0.718-0.08,1.075-0.118c1.429-0.129,2.828-0.427,4.201-0.688
						c2.745-0.542,5.375-1.154,7.878-1.752c5.004-1.202,9.509-2.315,13.335-3.06C129.364,331.503,134.216,331.484,134.216,331.484z"
						/>
				</g>
			</g>
			<g>
				<g>
					<path style="fill:#FAFAFA;" d="M138.489,408.467c0,0-0.274-0.173-0.775-0.527c-0.493-0.366-1.249-0.865-2.232-1.49
						c-1.973-1.236-4.966-2.833-8.9-4.209c-3.935-1.339-8.828-2.435-14.335-2.567c-5.505-0.096-11.545,0.651-17.853,1.457
						c-6.313,0.82-12.349,1.6-17.881,1.71c-5.528,0.128-10.52-0.389-14.592-1.352c-4.075-0.967-7.214-2.314-9.261-3.438
						c-1.021-0.57-1.801-1.033-2.304-1.39c-0.512-0.34-0.772-0.532-0.772-0.532s0.284,0.157,0.806,0.479
						c0.513,0.339,1.3,0.784,2.326,1.336c2.057,1.087,5.193,2.395,9.254,3.33c4.059,0.93,9.029,1.422,14.536,1.279
						c5.511-0.125,11.534-0.911,17.848-1.732c6.313-0.807,12.359-1.547,17.9-1.435c5.54,0.15,10.456,1.274,14.401,2.646
						c3.943,1.41,6.933,3.043,8.892,4.315c0.977,0.643,1.723,1.159,2.205,1.542C138.241,408.26,138.489,408.467,138.489,408.467z"/>
				</g>
			</g>
			<g>
				<g>
					<path style="fill:#FAFAFA;" d="M139.891,422.663c0,0-0.31,0.1-0.907,0.261c-0.598,0.156-1.479,0.387-2.596,0.747
						c-2.242,0.69-5.422,1.886-9.263,3.58c-3.848,1.648-8.414,3.806-13.861,5.042c-2.716,0.608-5.638,0.969-8.672,0.949
						c-3.034-0.021-6.16-0.419-9.309-1.032c-6.301-1.276-12.097-3.256-17.426-4.786c-5.324-1.551-10.226-2.602-14.404-2.948
						c-4.176-0.378-7.584-0.072-9.885,0.348c-1.148,0.236-2.038,0.426-2.629,0.608c-0.596,0.161-0.914,0.231-0.914,0.231
						s0.305-0.11,0.897-0.292c0.586-0.202,1.475-0.412,2.623-0.668c2.303-0.459,5.728-0.8,9.926-0.448
						c4.2,0.319,9.127,1.353,14.465,2.891c5.343,1.517,11.135,3.486,17.408,4.756c3.135,0.61,6.241,1.007,9.251,1.032
						c3.009,0.023,5.907-0.328,8.606-0.924c5.411-1.211,9.974-3.339,13.837-4.964c3.854-1.669,7.057-2.838,9.315-3.493
						c1.125-0.343,2.012-0.556,2.616-0.692C139.571,422.722,139.891,422.663,139.891,422.663z"/>
				</g>
			</g>
			<g>
				<path style="fill:none;stroke:#E8505B;stroke-miterlimit:10;" d="M134.035,328.317"/>
			</g>
			<g style="opacity:0.3;">
				<g>
					<path d="M139.712,405.798c0.487-15.137,3.034-32.89,0.804-47.023c3.074,6.531,6.345,21.123,6.345,21.123
						c-0.258,1.938-1.455,5.406-2.01,7.282C143.161,392.894,141.402,400.083,139.712,405.798"/>
				</g>
			</g>
			<g>
				<g>
					<path style="fill:#FAFAFA;" d="M146.01,374.25c0,0-0.305-0.209-0.865-0.631c-0.542-0.447-1.41-1.007-2.536-1.714
						c-2.284-1.342-5.87-2.913-10.568-3.682c-4.683-0.805-10.417-0.804-16.621,0.212c-6.215,0.998-12.871,2.951-19.936,4.68
						c-7.055,1.67-13.998,2.987-20.324,2.25c-6.291-0.693-11.76-2.576-16.002-4.753c-2.149-1.051-3.929-2.297-5.461-3.412
						c-0.73-0.606-1.415-1.165-2.012-1.716c-0.565-0.584-1.106-1.096-1.547-1.596c-0.414-0.517-0.784-0.979-1.11-1.386
						c-0.317-0.405-0.515-0.797-0.71-1.088c-0.37-0.598-0.549-0.918-0.549-0.918s0.217,0.3,0.603,0.884
						c0.203,0.285,0.408,0.67,0.731,1.067c0.33,0.399,0.706,0.853,1.126,1.361c0.446,0.492,0.99,0.994,1.558,1.568
						c0.599,0.541,1.286,1.091,2.017,1.686c1.534,1.095,3.311,2.321,5.455,3.354c4.231,2.14,9.682,3.99,15.932,4.663
						c6.266,0.717,13.179-0.599,20.221-2.267c7.053-1.725,13.721-3.674,19.964-4.661c6.233-1.004,11.997-0.983,16.703-0.145
						c4.721,0.802,8.318,2.415,10.593,3.796c1.121,0.727,1.981,1.305,2.512,1.769C145.732,374.008,146.01,374.25,146.01,374.25z"/>
				</g>
			</g>
		</g>
		<g>
			<g>
				<path style="fill:#263238;" d="M124.909,408.369c0.004,0.018-0.186,0.076-0.552,0.171c-0.422,0.103-0.953,0.232-1.604,0.39
					c-1.395,0.329-3.418,0.779-5.923,1.317c-5.009,1.076-11.948,2.478-19.638,3.887c-7.693,1.408-14.679,2.555-19.744,3.324
					c-2.533,0.385-4.585,0.681-6.005,0.867c-0.664,0.083-1.206,0.15-1.637,0.204c-0.375,0.041-0.574,0.054-0.576,0.036
					c-0.003-0.018,0.19-0.065,0.56-0.14c0.427-0.079,0.964-0.178,1.622-0.3c1.482-0.255,3.507-0.605,5.978-1.031
					c5.049-0.862,12.021-2.066,19.709-3.473c7.686-1.408,14.631-2.752,19.658-3.735c2.462-0.477,4.479-0.868,5.955-1.154
					c0.659-0.119,1.196-0.216,1.624-0.294C124.708,408.375,124.905,408.351,124.909,408.369z"/>
			</g>
		</g>
		<g>
			<g>
				<path style="fill:#263238;" d="M126.788,372.895c0.018,0.002,0,0.21-0.05,0.606c-0.064,0.392-0.101,0.984-0.276,1.721
					c-0.279,1.488-0.885,3.613-1.997,6.091c-1.102,2.481-2.802,5.263-5.09,8.03c-2.29,2.764-5.193,5.48-8.557,7.892
					c-6.783,4.787-13.8,7.591-18.825,9.518c-2.527,0.954-4.59,1.675-6.019,2.162c-0.673,0.223-1.22,0.404-1.65,0.547
					c-0.379,0.119-0.581,0.174-0.588,0.157c-0.006-0.017,0.184-0.104,0.552-0.255c0.422-0.167,0.957-0.378,1.617-0.638
					c1.47-0.571,3.489-1.356,5.955-2.315c4.984-2.01,11.941-4.857,18.657-9.599c3.329-2.388,6.208-5.061,8.491-7.776
					c2.281-2.718,3.992-5.445,5.124-7.878c1.141-2.429,1.795-4.516,2.133-5.98C126.61,373.714,126.738,372.887,126.788,372.895z"/>
			</g>
		</g>
		<g>
			<g>
				<g>
					<g>
						<path style="fill:#263238;" d="M80.539,170.017c9.683-9.238,24.658-14.391,36.738-8.631
							c8.122,3.873,13.459,11.786,20.517,17.367c5.14,4.064,11.549,7.285,14.116,13.314c2.263,5.316,0.892,11.372,0.117,17.097
							c-0.774,5.725-0.578,12.364,3.752,16.189c2.273,2.009,5.32,2.872,7.902,4.465c5.197,3.206,8.152,9.213,9.091,15.247
							c0.939,6.034,0.127,12.187-0.686,18.24l-25.398,3.99l-3.919-7.108l-1.802,10.917l-32.307,1.86L80.539,170.017z"/>
					</g>
					<g>
						<g>
							<g>
								<g>
									<g>
										<g>
											<g>
												<g>
													<g>
														<g>
															<g>
																<g>
																	<path style="fill:#FFBE9D;" d="M76.037,180.3l-0.283,7.021l-5.407,105.221
																		c-0.57,12.198,10.77,22.969,23.835,23.479l0,0c13.196,0.515,18.902-9.226,19.68-21.539
																		c0.817-12.924,1.914-26.514,1.914-26.514s16.818-1.764,21.574-23.282c2.365-10.701,2.888-28.449,2.846-42.985
																		c-0.038-13.083-10.949-23.502-24.019-22.91L76.037,180.3z"/>
																</g>
															</g>
														</g>
													</g>
												</g>
											</g>
											<g>
												<g>
													<g>
														<g>
															<g>
																<g>
																	<g>
																		<path style="fill:#263238;" d="M132.599,214.523c-0.037,1.474-1.315,2.659-2.856,2.649
																			c-1.538-0.01-2.757-1.21-2.721-2.685c0.037-1.474,1.315-2.661,2.853-2.652
																			C131.415,211.846,132.635,213.049,132.599,214.523z"/>
																	</g>
																</g>
															</g>
														</g>
													</g>
												</g>
												<g>
													<g>
														<g>
															<g>
																<g>
																	<g>
																		<g>
																			<path style="fill:#263238;" d="M135.799,210.686c-0.367,0.342-2.384-1.347-5.383-1.519
																				c-2.993-0.215-5.286,1.195-5.589,0.808c-0.15-0.172,0.241-0.807,1.241-1.447
																				c0.985-0.638,2.634-1.217,4.502-1.096c1.867,0.122,3.397,0.904,4.257,1.663
																				C135.706,209.857,135.979,210.533,135.799,210.686z"/>
																		</g>
																	</g>
																</g>
															</g>
														</g>
													</g>
												</g>
											</g>
											<g>
												<g>
													<g>
														<g>
															<g>
																<g>
																	<g>
																		<path style="fill:#263238;" d="M103.457,213.577c-0.036,1.474-1.316,2.659-2.856,2.649
																			c-1.538-0.01-2.758-1.21-2.721-2.685c0.036-1.474,1.315-2.661,2.853-2.652
																			C102.274,210.899,103.494,212.102,103.457,213.577z"/>
																	</g>
																</g>
															</g>
														</g>
													</g>
												</g>
												<g>
													<g>
														<g>
															<g>
																<g>
																	<g>
																		<g>
																			<path style="fill:#263238;" d="M106.293,209.473c-0.368,0.342-2.387-1.346-5.384-1.519
																				c-2.993-0.215-5.286,1.195-5.59,0.808c-0.149-0.172,0.239-0.806,1.242-1.446
																				c0.985-0.638,2.634-1.217,4.501-1.097c1.867,0.123,3.397,0.905,4.258,1.663
																				C106.198,208.644,106.472,209.32,106.293,209.473z"/>
																		</g>
																	</g>
																</g>
															</g>
														</g>
													</g>
												</g>
											</g>
											<g>
												<g>
													<g>
														<g>
															<g>
																<g>
																	<g>
																		<path style="fill:#263238;" d="M115.838,232.363c-0.004-0.171,1.88-0.381,4.923-0.586
																			c0.77-0.033,1.504-0.142,1.665-0.656c0.214-0.542-0.057-1.387-0.375-2.3c-0.608-1.896-1.245-3.883-1.914-5.966
																			c-2.645-8.49-4.511-15.452-4.168-15.555c0.343-0.104,2.766,6.694,5.41,15.183c0.633,2.092,1.24,4.087,1.816,5.995
																			c0.238,0.887,0.677,1.904,0.217,3.029c-0.241,0.56-0.828,0.941-1.326,1.044c-0.5,0.12-0.931,0.102-1.311,0.102
																			C117.725,232.633,115.839,232.534,115.838,232.363z"/>
																	</g>
																</g>
															</g>
														</g>
													</g>
												</g>
											</g>
											<g>
												<g>
													<g>
														<g>
															<g>
																<g>
																	<path style="fill:#EB996E;" d="M115.776,267.968c0,0-14.673,0.064-28.63-9.511c0,0,6.162,15.349,28.028,14.623
																		L115.776,267.968z"/>
																</g>
															</g>
														</g>
													</g>
												</g>
											</g>
											<g>
												<g>
													<g>
														<g>
															<g>
																<g>
																	<path style="fill:#EB996E;" d="M113.323,237.517c-1.556-0.887-3.604-0.863-5.252,0.063
																		c-1.143,0.642-2.106,1.739-2.416,3.026c-0.31,1.287,0.131,2.738,1.191,3.385c1.194,0.728,2.854,0.303,4.012-0.635
																		c1.157-0.939,1.92-2.293,2.627-3.618c0.195-0.367,0.393-0.747,0.439-1.155c0.045-0.407-0.099-0.853-0.445-1.026"/>
																</g>
															</g>
														</g>
													</g>
												</g>
											</g>
										</g>
									</g>
								</g>
								<g>
									<g>
										<g>
											<g>
												<g>
													<g>
														<path style="fill:#263238;" d="M105.233,200.987c-0.116,0.861-3.129,1.12-6.482,2.284
															c-3.377,1.097-5.934,2.709-6.547,2.092c-0.278-0.298,0.043-1.154,0.997-2.171c0.945-1.013,2.561-2.133,4.578-2.813
															c2.018-0.676,3.982-0.759,5.347-0.521C104.502,200.092,105.274,200.581,105.233,200.987z"/>
													</g>
												</g>
											</g>
										</g>
									</g>
								</g>
								<g>
									<g>
										<g>
											<g>
												<g>
													<g>
														<path style="fill:#263238;" d="M137.02,206.129c-0.821,0.453-3.003-0.991-5.876-1.948
															c-2.845-1.04-5.465-1.273-5.81-2.133c-0.14-0.409,0.453-0.936,1.718-1.208c1.248-0.276,3.167-0.212,5.133,0.474
															c1.964,0.688,3.493,1.827,4.282,2.814C137.271,205.122,137.392,205.899,137.02,206.129z"/>
													</g>
												</g>
											</g>
										</g>
									</g>
								</g>
							</g>
						</g>
					</g>
					<g>
						<path style="fill:#263238;" d="M91.985,167.96c3.767,5.416,5.507,9.539,7.563,19.02c1.007,4.643-2.844,7.774-6.654,10.465
							c-1.786,1.261-4.277,0.259-4.684-1.889l0,0c0,0,0.824,14.452-4.597,20.744c-2.541,2.949-2.77,6.831-2.297,10.124
							c0.483,3.363,2.108,6.427,4.368,8.964c5.834,6.548,7.176,16.962,2.755,24.616c-1.132,1.96-2.584,3.741-3.504,5.809
							c-0.526,1.183-0.854,2.516-0.818,3.802c0.045,1.589-1.093,2.957-2.673,3.134c-17.963,2.013-36.156,1.97-54.109-0.131
							c-1.264-0.148-2.322-1.08-2.574-2.327c-1.216-6.017,1.347-12.452,4.544-17.852c3.569-6.031,8.052-11.783,9.436-18.653
							c1.303-6.465-0.244-13.533,2.564-19.5c3.447-7.324,12.274-10.553,16.857-17.225c4.324-6.295,4.268-14.736,8.172-21.3
							C71.347,167.333,83.13,163.749,91.985,167.96"/>
					</g>
					<g>
						<path style="fill:#263238;" d="M92.73,175.974c6.725,3.738,9.614,12.206,16.133,16.295c5.937,3.723,13.518,3.038,20.479,2.223
							c-0.207-1.545-0.414-3.089-0.622-4.634c0.657,1.37,1.339,2.773,2.445,3.814c1.107,1.041,2.75,1.655,4.177,1.133
							c2.354-0.86,2.766-4.047,2.249-6.5c-0.829-3.928-2.991-7.488-5.714-10.438c-4.947-5.362-11.864-8.865-19.113-9.682
							c-7.25-0.817-14.772,1.059-20.789,5.185"/>
					</g>
					<g>
						<path style="fill:#263238;" d="M67.697,191.724c2.811-6.493,1.41-14.819-3.049-19.956c-4.459-5.136-11.583-6.962-17.75-4.931
							c-2.759,0.909-5.392,2.582-7.158,5.134c-3.254,4.702-2.88,11.785,0.17,16.604c3.05,4.819,8.305,7.484,13.569,7.983
							c5.264,0.499,10.552-0.955,15.504-3.074"/>
					</g>
					<g>
						<g>
							<path style="fill:#455A64;" d="M58.164,192.814c0.074-0.087,1.274,1.016,3.51,2.34c1.111,0.672,2.509,1.341,4.108,1.954
								c1.611,0.58,3.431,1.084,5.386,1.387c1.959,0.277,3.847,0.323,5.558,0.235c1.708-0.124,3.24-0.359,4.498-0.679
								c2.524-0.619,3.993-1.326,4.038-1.222c0.017,0.035-0.341,0.226-1.007,0.542c-0.331,0.164-0.742,0.349-1.239,0.515
								c-0.494,0.172-1.048,0.401-1.691,0.553c-1.266,0.376-2.821,0.658-4.563,0.812c-1.744,0.119-3.676,0.089-5.678-0.195
								c-1.997-0.309-3.854-0.84-5.489-1.459c-1.622-0.653-3.028-1.374-4.131-2.1c-0.571-0.332-1.035-0.712-1.458-1.02
								c-0.427-0.303-0.767-0.599-1.036-0.852C58.425,193.13,58.138,192.844,58.164,192.814z"/>
						</g>
					</g>
					<g>
						<g>
							<path style="fill:#455A64;" d="M85.856,206.238c0.007,0.037-0.418,0.157-1.197,0.328c-0.779,0.171-1.913,0.389-3.327,0.589
								c-2.81,0.385-6.842,0.73-11.143-0.296c-4.307-1.039-7.697-3.515-9.447-5.8c-0.891-1.137-1.442-2.178-1.73-2.928
								c-0.294-0.748-0.388-1.183-0.359-1.192c0.118-0.056,0.575,1.71,2.399,3.866c1.779,2.154,5.09,4.494,9.272,5.504
								c4.188,1,8.156,0.732,10.961,0.449c1.41-0.148,2.549-0.304,3.338-0.408C85.41,206.245,85.849,206.198,85.856,206.238z"/>
						</g>
					</g>
					<g>
						<g>
							<path style="fill:#455A64;" d="M44.965,271.543c-0.008,0.006-0.054-0.046-0.139-0.155c-0.08-0.111-0.215-0.268-0.354-0.497
								c-0.274-0.459-0.627-1.19-0.796-2.206c-0.364-1.996,0.187-5.218,2.653-8.002c1.225-1.37,2.847-2.584,4.674-3.69
								c1.821-1.119,3.862-2.136,5.87-3.396c1.988-1.266,4.004-2.817,5.407-4.946c0.695-1.059,1.205-2.264,1.419-3.552
								c0.224-1.286,0.166-2.632-0.081-3.963c-0.508-2.672-1.618-5.142-2.51-7.591c-0.921-2.431-1.62-4.94-1.601-7.381
								c-0.04-4.898,1.922-9.066,4.122-11.934c2.226-2.918,4.774-4.578,6.599-5.446c0.458-0.201,0.87-0.382,1.237-0.544
								c0.359-0.113,0.672-0.212,0.944-0.297c0.511-0.154,0.781-0.226,0.787-0.207c0.005,0.019-0.254,0.127-0.751,0.315
								c-0.264,0.099-0.568,0.214-0.917,0.345c-0.357,0.173-0.757,0.368-1.202,0.585c-1.772,0.917-4.237,2.599-6.378,5.491
								c-2.117,2.841-3.988,6.935-3.919,11.686c-0.003,2.367,0.677,4.775,1.599,7.195c0.89,2.429,2.018,4.913,2.547,7.681
								c0.257,1.378,0.319,2.798,0.08,4.162c-0.229,1.365-0.777,2.651-1.51,3.76c-1.484,2.233-3.566,3.808-5.593,5.084
								c-2.051,1.269-4.093,2.266-5.905,3.357c-1.816,1.077-3.412,2.244-4.621,3.559c-2.416,2.649-3.02,5.759-2.731,7.698
								C44.181,270.647,45.053,271.506,44.965,271.543z"/>
						</g>
					</g>
					<g>
						<g>
							<path style="fill:#455A64;" d="M73.92,272.879c-0.01,0.017-0.221-0.111-0.618-0.375c-0.364-0.297-0.916-0.768-1.353-1.573
								c-0.453-0.788-0.799-1.876-0.877-3.166c-0.078-1.288,0.116-2.766,0.615-4.309c0.987-3.164,3.75-5.982,5.871-9.565
								c1.054-1.792,1.835-3.883,1.836-6.143c0.035-2.252-0.574-4.565-1.529-6.77c-1.924-4.441-4.987-8.02-7.063-11.731
								c-1.051-1.846-1.9-3.708-2.388-5.55c-0.521-1.841-0.568-3.658-0.364-5.261c0.411-3.242,1.989-5.568,3.388-6.698
								c0.715-0.558,1.339-0.891,1.78-1.063c0.446-0.163,0.681-0.239,0.687-0.22c0.038,0.074-0.974,0.304-2.324,1.45
								c-1.314,1.149-2.784,3.427-3.134,6.58c-0.173,1.561-0.105,3.31,0.419,5.087c0.494,1.788,1.339,3.601,2.388,5.415
								c1.054,1.815,2.314,3.633,3.594,5.546c1.283,1.908,2.56,3.955,3.537,6.22c0.976,2.255,1.607,4.647,1.563,7.005
								c-0.008,2.366-0.848,4.574-1.94,6.396c-2.202,3.645-4.958,6.406-5.943,9.431c-0.507,1.487-0.723,2.919-0.678,4.165
								c0.046,1.248,0.348,2.301,0.754,3.075C72.969,272.402,73.997,272.805,73.92,272.879z"/>
						</g>
					</g>
					<g>
						<g>
							<path style="fill:#455A64;" d="M119.494,192.628c-0.01,0.017-0.148-0.047-0.406-0.186c-0.254-0.143-0.618-0.377-1.054-0.721
								c-0.871-0.688-2.001-1.876-3.014-3.59c-1.039-1.701-1.898-3.915-2.808-6.343c-0.462-1.213-0.956-2.479-1.573-3.735
								c-0.646-1.237-1.362-2.501-2.284-3.664c-3.613-4.764-8.6-7.419-12.307-8.511c-3.757-1.112-6.238-0.968-6.226-1.1
								c0-0.036,0.609-0.061,1.715-0.041c1.099,0.082,2.708,0.219,4.622,0.755c1.906,0.534,4.136,1.402,6.355,2.818
								c2.208,1.412,4.47,3.293,6.292,5.734c0.944,1.192,1.678,2.492,2.332,3.764c0.624,1.288,1.113,2.574,1.563,3.795
								c0.886,2.447,1.693,4.635,2.666,6.325c0.948,1.704,2.001,2.898,2.811,3.624C118.989,192.279,119.522,192.584,119.494,192.628
								z"/>
						</g>
					</g>
					<g>
						<g>
							<path style="fill:#455A64;" d="M134.666,193.032c-0.004,0.019-0.203-0.009-0.583-0.081c-0.381-0.062-0.933-0.216-1.62-0.477
								c-1.372-0.517-3.26-1.621-5.075-3.538c-1.837-1.888-3.582-4.529-5.139-7.609c-1.606-3.044-3.147-6.536-5.608-9.611
								c-2.433-3.11-5.812-5.025-9.042-6.057c-3.254-1.041-6.357-1.331-8.94-1.49c-2.593-0.142-4.701-0.101-6.156-0.092
								c-0.676,0.004-1.23,0.007-1.677,0.009c-0.384-0.003-0.586-0.014-0.587-0.033c-0.001-0.02,0.2-0.047,0.582-0.081
								c0.383-0.033,0.947-0.079,1.675-0.115c1.456-0.077,3.567-0.179,6.181-0.088c2.605,0.109,5.747,0.358,9.081,1.393
								c3.304,1.021,6.821,2.995,9.324,6.198c2.525,3.159,4.056,6.685,5.631,9.728c1.524,3.076,3.201,5.684,4.966,7.573
								c1.742,1.913,3.547,3.038,4.868,3.609C133.874,192.843,134.68,192.969,134.666,193.032z"/>
						</g>
					</g>
					<g>
						<g>
							<path style="fill:#455A64;" d="M158.054,264.457c-0.062-0.026,0.303-0.763,0.711-2.175c0.407-1.405,0.884-3.5,0.853-6.121
								c-0.008-2.605-0.527-5.752-2.026-8.865c-0.74-1.557-1.748-3.067-2.967-4.502c-1.214-1.44-2.612-2.816-4.024-4.256
								c-1.412-1.438-2.775-2.889-3.89-4.457c-1.124-1.557-2.031-3.181-2.748-4.79c-0.723-1.607-1.246-3.206-1.601-4.729
								c-0.37-1.521-0.586-2.967-0.679-4.293c-0.206-2.654,0.014-4.81,0.266-6.268c0.109-0.734,0.258-1.291,0.354-1.668
								c0.097-0.377,0.157-0.573,0.176-0.568c0.058,0.013-0.136,0.809-0.312,2.269c-0.183,1.456-0.339,3.59-0.085,6.201
								c0.117,1.305,0.353,2.725,0.736,4.215c0.369,1.494,0.899,3.058,1.622,4.628c0.716,1.572,1.614,3.158,2.721,4.677
								c1.095,1.527,2.438,2.952,3.846,4.387c1.407,1.435,2.813,2.824,4.044,4.295c1.235,1.464,2.268,3.031,3.013,4.635
								c1.513,3.208,1.998,6.435,1.955,9.09c-0.021,2.672-0.568,4.788-1.044,6.187c-0.242,0.703-0.463,1.234-0.641,1.582
								C158.168,264.284,158.072,264.465,158.054,264.457z"/>
						</g>
					</g>
					<g>
						<g>
							<path style="fill:#455A64;" d="M39.376,186.925c-0.036-0.008,0.005-0.507,0.206-1.385c0.198-0.878,0.614-2.122,1.357-3.527
								c1.432-2.782,4.564-6.234,9.006-7.298c4.452-1.017,8.521,0.751,10.795,2.666c1.167,0.958,1.978,1.915,2.462,2.633
								c0.487,0.717,0.697,1.158,0.666,1.181c-0.107,0.105-1.057-1.631-3.395-3.384c-2.27-1.746-6.181-3.338-10.398-2.373
								c-4.208,1.006-7.256,4.226-8.742,6.85C39.787,184.95,39.511,186.973,39.376,186.925z"/>
						</g>
					</g>
					<g>
						<g>
							<path style="fill:#455A64;" d="M51.426,193.294c-0.079-0.02,0.044-1.249,0.457-3.208c0.433-1.912,1.165-4.759,3.217-7.013
								c2.137-2.255,5.061-2.447,6.76-1.685c0.865,0.388,1.455,0.961,1.746,1.434c0.302,0.465,0.39,0.771,0.36,0.788
								c-0.106,0.114-0.617-1.139-2.263-1.729c-1.571-0.576-4.246-0.297-6.148,1.724c-1.894,2.069-2.685,4.76-3.223,6.619
								C51.811,192.118,51.524,193.319,51.426,193.294z"/>
						</g>
					</g>
					<g>
						<g>
							<path style="fill:#E8505B;" d="M68.15,173.041c0.167,0.139-2.044,3.181-3.57,7.618c-1.566,4.421-1.779,8.326-1.986,8.303
								c-0.156,0.024-0.237-4.008,1.374-8.568C65.544,175.821,68.049,172.906,68.15,173.041z"/>
						</g>
					</g>
				</g>
			</g>
			<g>
				<g>
					<path style="fill:#263238;" d="M21.162,243.71c0.043-0.064,0.531,0.927,2.182,1.63c0.812,0.346,1.906,0.545,3.157,0.429
						c1.236-0.14,2.662-0.583,3.855-1.628c2.468-2.038,3.81-5.927,3.704-10.101c-0.016-2.103-0.291-4.301-0.501-6.593
						c-0.206-2.287-0.321-4.704,0.118-7.132c0.219-1.21,0.586-2.386,1.123-3.464c0.552-1.07,1.249-2.043,2.058-2.879
						c1.622-1.68,3.578-2.828,5.455-3.796c1.895-0.952,3.752-1.721,5.465-2.484c1.705-0.77,3.254-1.584,4.57-2.477
						c2.665-1.75,4.331-3.816,5.065-5.43c0.722-1.629,0.738-2.652,0.795-2.637c0,0-0.02,0.246-0.087,0.713
						c-0.073,0.465-0.25,1.144-0.597,1.974c-0.708,1.652-2.377,3.773-5.052,5.563c-1.321,0.913-2.876,1.745-4.587,2.53
						c-1.713,0.775-3.564,1.552-5.441,2.504c-1.859,0.967-3.785,2.108-5.365,3.752c-0.789,0.818-1.465,1.765-2,2.805
						c-0.521,1.048-0.879,2.195-1.094,3.381c-0.839,4.803,0.387,9.43,0.364,13.667c0.093,4.224-1.293,8.198-3.849,10.272
						c-1.24,1.066-2.715,1.507-3.981,1.633c-1.282,0.102-2.398-0.12-3.22-0.491c-0.828-0.364-1.373-0.828-1.693-1.174
						C21.291,243.923,21.162,243.71,21.162,243.71z"/>
				</g>
			</g>
			<g>
				<g>
					<path style="fill:#263238;" d="M147.995,173.188c0,0,0.105,0.199,0.198,0.613c0.101,0.41,0.122,1.064-0.125,1.838
						c-0.262,0.762-0.801,1.644-1.718,2.352c-0.895,0.713-2.226,1.216-3.683,1.048c-1.452-0.132-2.966-0.801-4.285-1.868
						c-1.344-1.052-2.454-2.524-3.445-4.133c-1.003-1.608-1.898-3.383-3.084-5.046c-1.166-1.677-2.61-3.244-4.253-4.654
						c-3.305-2.814-7.149-4.613-10.808-5.438c-3.674-0.817-7.123-0.701-9.917-0.21c-2.809,0.481-4.971,1.346-6.419,1.999
						c-0.718,0.346-1.273,0.62-1.638,0.829c-0.37,0.2-0.572,0.291-0.572,0.291s0.725-0.513,2.158-1.23
						c1.438-0.69,3.604-1.593,6.432-2.106c2.813-0.522,6.297-0.664,10.019,0.147c3.707,0.82,7.602,2.632,10.948,5.481
						c1.663,1.427,3.124,3.016,4.301,4.716c1.199,1.69,2.09,3.472,3.079,5.071c0.977,1.603,2.057,3.047,3.362,4.082
						c1.282,1.052,2.745,1.709,4.143,1.85c1.409,0.174,2.672-0.289,3.556-0.967c0.898-0.673,1.437-1.519,1.709-2.253
						c0.258-0.745,0.259-1.381,0.178-1.787C148.059,173.403,147.976,173.194,147.995,173.188z"/>
				</g>
			</g>
			<g>
				<g>
					<path style="fill:#263238;" d="M84.646,265.194c-0.002-0.005,0.063-0.038,0.193-0.098c0.159-0.072,0.347-0.157,0.576-0.26
						c0.505-0.232,1.244-0.586,2.157-1.111c1.787-1.052,4.436-2.819,6.377-6.062c0.937-1.613,1.658-3.598,1.769-5.797
						c0.049-1.095-0.041-2.24-0.359-3.364c-0.327-1.122-0.871-2.204-1.531-3.247c-1.397-2.05-3.339-3.829-5.372-5.62
						c-1.015-0.904-2.069-1.801-3.067-2.798c-1.001-0.988-1.984-2.05-2.748-3.296c-0.425-0.596-0.689-1.281-0.997-1.934
						c-0.191-0.698-0.452-1.376-0.482-2.096c-0.217-1.417,0.025-2.847,0.454-4.148c0.926-2.609,2.546-4.735,3.925-6.8
						c1.425-2.046,2.546-4.136,3.244-6.236c0.696-2.097,1.039-4.144,1.144-6.018c0.219-3.767-0.514-6.792-1.194-8.772
						c-0.346-0.993-0.661-1.752-0.907-2.249c-0.237-0.502-0.347-0.774-0.347-0.774s0.148,0.252,0.404,0.747
						c0.265,0.49,0.599,1.243,0.965,2.236c0.719,1.979,1.493,5.02,1.3,8.824c-0.092,1.893-0.425,3.964-1.118,6.089
						c-0.692,2.125-1.828,4.261-3.251,6.315c-1.378,2.074-2.977,4.193-3.874,6.738c-0.415,1.268-0.647,2.646-0.435,4.013
						c0.028,0.695,0.283,1.349,0.465,2.023c0.301,0.632,0.553,1.295,0.97,1.877c0.744,1.214,1.71,2.262,2.702,3.241
						c0.987,0.987,2.039,1.885,3.051,2.79c2.032,1.796,3.991,3.595,5.41,5.69c0.671,1.068,1.224,2.178,1.556,3.334
						c0.322,1.157,0.409,2.332,0.353,3.451c-0.126,2.248-0.873,4.262-1.838,5.895c-1.998,3.281-4.692,5.029-6.507,6.056
						C85.771,264.847,84.646,265.194,84.646,265.194z"/>
				</g>
			</g>
			<g>
				<g>
					<path style="fill:#263238;" d="M164.757,225.514c0.002-0.005,0.054,0.011,0.154,0.048c0.104,0.03,0.247,0.099,0.426,0.211
						c0.353,0.22,0.814,0.693,1.07,1.459c0.251,0.744,0.311,1.833-0.315,2.824c-0.616,0.984-1.904,1.661-3.341,1.692
						c-1.45,0.068-3.013-0.625-4.193-1.82c-1.199-1.187-2.102-2.781-2.733-4.545c-1.301-3.554-1.35-7.777-0.939-12.044
						c0.42-4.28,1.04-8.344,0.803-12.053c-0.12-1.845-0.402-3.598-0.943-5.148c-0.529-1.555-1.271-2.915-2.106-4.034
						c-1.665-2.257-3.664-3.521-5.14-4.013c-1.482-0.515-2.378-0.488-2.369-0.541c0,0,0.218,0.002,0.633,0.037
						c0.209,0.008,0.463,0.051,0.76,0.118c0.302,0.049,0.641,0.14,1.016,0.272c1.508,0.463,3.563,1.72,5.277,3.996
						c0.859,1.129,1.624,2.504,2.173,4.082c0.562,1.577,0.857,3.349,0.986,5.215c0.255,3.749-0.361,7.836-0.779,12.1
						c-0.41,4.25-0.365,8.424,0.898,11.918c0.613,1.736,1.492,3.303,2.645,4.459c1.14,1.165,2.619,1.833,4.006,1.783
						c1.376-0.017,2.607-0.648,3.2-1.567c0.603-0.919,0.571-1.969,0.345-2.691c-0.229-0.743-0.657-1.213-0.99-1.444
						C164.968,225.585,164.747,225.538,164.757,225.514z"/>
				</g>
			</g>
		</g>
		<g>
			<g>
				<path style="fill:#E8505B;" d="M70.326,283.157c0,0,8.174,16.569,25.464,15.801c17.29-0.768,19.085-15.931,19.085-15.931
					l9.681,10.659l-9.681,23.822l-14.221,6.148l-23.185-6.148l-6.199-9.815l-15.34-18.18L70.326,283.157z"/>
			</g>
			<g>
				<g>
					<path style="fill:#FAFAFA;" d="M127.882,300.971c0,0-0.298,0.031-0.861,0.06c-0.562,0.035-1.387,0.169-2.413,0.467
						c-1.016,0.335-2.216,0.871-3.515,1.665c-1.303,0.786-2.702,1.815-4.248,2.958c-1.551,1.129-3.252,2.402-5.298,3.407
						c-1.02,0.507-2.131,0.907-3.294,1.246c-1.173,0.304-2.399,0.548-3.672,0.67c-5.11,0.524-10.742-0.6-16.273-2.525
						c-5.555-1.904-10.708-4.105-15.65-5.271c-2.452-0.63-4.877-0.718-7.124-0.655c-2.251,0.071-4.341,0.328-6.228,0.661
						c-3.775,0.688-6.725,1.728-8.653,2.661c-0.492,0.215-0.902,0.457-1.263,0.657c-0.366,0.192-0.663,0.375-0.893,0.539
						c-0.47,0.313-0.727,0.465-0.727,0.465s0.9-0.801,2.83-1.77c1.922-0.972,4.878-2.05,8.666-2.769
						c1.894-0.349,3.993-0.62,6.259-0.703c2.26-0.075,4.715,0.004,7.2,0.634c4.976,1.159,10.147,3.359,15.683,5.255
						c5.513,1.918,11.092,3.036,16.145,2.534c1.258-0.117,2.469-0.353,3.627-0.649c1.148-0.33,2.245-0.719,3.253-1.214
						c2.022-0.98,3.723-2.235,5.281-3.352c1.553-1.13,2.967-2.152,4.288-2.929c1.316-0.785,2.537-1.311,3.569-1.632
						c1.043-0.284,1.878-0.399,2.445-0.414C127.585,300.96,127.882,300.971,127.882,300.971z"/>
				</g>
			</g>
		</g>
		<g>
			<g>
				<g>
					<g>
						<path style="fill:#FFBE9D;" d="M129.939,243.701l6.58,13.255l0.602,7.204c0,0,0.6-2.174,1.343-4.214
							c0.743-2.04,1.202-8.415,1.202-8.415l-4.792-9.949c0,0-2.831-5.489,0.585-8.051l5.078,6.713c0,0-4.032-7.713-0.229-9.815
							l4.287,4.825c0,0-1.146-1.852,0.926-2.912l10.832,13.89l-1.345,20.483l-3.717,21.274l1.772,3.182l-19.236,13.328
							c0,0-6.02-13.149-6.416-17.499c-0.396-4.35,3.871-27.403,3.871-27.403s-4.093-8.189-3.559-11.467
							S129.939,243.701,129.939,243.701z"/>
					</g>
					<g>
						<g>
							<path style="fill:#EB996E;" d="M135.383,307.692c-0.008,0.004-0.048-0.063-0.119-0.197c-0.074-0.146-0.174-0.345-0.305-0.605
								c-0.261-0.552-0.639-1.351-1.131-2.392c-0.97-2.109-2.38-5.216-4.015-9.266c-0.8-2.032-1.707-4.278-2.382-6.862
								c-0.381-1.308-0.291-2.752-0.188-4.167c0.117-1.429,0.278-2.904,0.476-4.424c0.788-6.081,1.916-12.925,3.256-20.415
								l0.03,0.212c-1.168-2.413-2.293-4.966-3.109-7.764c-0.201-0.7-0.371-1.419-0.474-2.168c-0.055-0.372-0.077-0.759-0.076-1.151
								l0.044-0.599l0.107-0.563c0.16-0.749,0.403-1.492,0.762-2.194c0.367-0.706,0.792-1.359,1.493-1.916l0.34-0.27l0.205,0.411
								c2.098,4.212,4.314,8.66,6.598,13.246l0.033,0.067l0.006,0.075c0.191,2.258,0.399,4.715,0.609,7.203l-0.784-0.073
								c0.314-0.987,0.632-1.99,0.955-3.006c0.159-0.501,0.319-1.004,0.479-1.511c0.142-0.483,0.251-1.003,0.342-1.527
								c0.362-2.104,0.572-4.304,0.747-6.508l0.039,0.206c-0.935-1.94-1.897-3.936-2.876-5.966
								c-0.489-1.015-0.983-2.039-1.479-3.069c-0.238-0.513-0.515-1.026-0.74-1.587c-0.22-0.552-0.416-1.115-0.554-1.699
								c-0.269-1.06-0.378-2.189-0.177-3.307c0.19-1.114,0.81-2.204,1.741-2.877l0.331-0.24l0.242,0.32
								c1.71,2.263,3.403,4.502,5.076,6.715l-0.687,0.435c-0.822-1.673-1.464-3.388-1.775-5.215
								c-0.146-0.91-0.197-1.859,0.014-2.805c0.201-0.942,0.819-1.863,1.699-2.334l0.293-0.157l0.209,0.251
								c1.471,1.766,2.92,3.507,4.351,5.226l-0.656,0.429c-0.285-0.646-0.417-1.313-0.279-2.029c0.128-0.723,0.687-1.323,1.282-1.63
								l0.29-0.15l0.199,0.253c3.771,4.779,7.39,9.367,10.836,13.735l0.087,0.111l-0.009,0.139
								c-0.501,7.371-0.967,14.216-1.393,20.48l-0.001,0.018l-0.003,0.016c-1.463,8.186-2.736,15.31-3.8,21.259l-0.025-0.152
								c3.042,5.627,5.45,10.081,7.105,13.141c0.808,1.523,1.431,2.698,1.858,3.504c0.201,0.393,0.354,0.694,0.464,0.909
								c0.101,0.206,0.148,0.313,0.139,0.318c-0.01,0.005-0.075-0.092-0.195-0.287c-0.123-0.208-0.295-0.499-0.519-0.879
								c-0.452-0.793-1.11-1.947-1.964-3.446c-1.699-3.036-4.171-7.455-7.295-13.037l-0.039-0.07l0.014-0.082
								c1.017-5.957,2.235-13.091,3.634-21.288l-0.004,0.034c0.396-6.266,0.829-13.112,1.296-20.486l0.078,0.25
								c-3.459-4.357-7.092-8.934-10.877-13.703l0.489,0.103c-0.452,0.249-0.79,0.617-0.879,1.101
								c-0.101,0.471,0.009,1.054,0.217,1.515l1.19,2.639l-1.847-2.21c-1.434-1.716-2.887-3.455-4.361-5.218l0.502,0.094
								c-0.675,0.373-1.126,1.031-1.302,1.816c-0.175,0.786-0.139,1.646,0,2.492c0.287,1.695,0.92,3.39,1.699,4.967l-0.686,0.435
								c-1.674-2.212-3.369-4.45-5.081-6.712l0.574,0.081c-0.77,0.563-1.257,1.421-1.426,2.372
								c-0.171,0.952-0.084,1.974,0.167,2.959c0.127,0.541,0.312,1.07,0.517,1.585c0.202,0.507,0.47,1.007,0.715,1.531
								c0.497,1.031,0.99,2.056,1.48,3.073c0.979,2.033,1.94,4.031,2.875,5.974l0.048,0.1l-0.009,0.107
								c-0.18,2.232-0.391,4.43-0.765,6.592c-0.095,0.541-0.207,1.078-0.367,1.621c-0.164,0.514-0.327,1.025-0.489,1.532
								c-0.32,1.001-0.636,1.988-0.947,2.961l-0.618,1.934l-0.166-2.007c-0.205-2.488-0.408-4.945-0.595-7.204l0.04,0.142
								c-2.272-4.592-4.475-9.046-6.562-13.264l0.544,0.142c-0.493,0.388-0.945,1.013-1.257,1.636
								c-0.327,0.633-0.554,1.317-0.706,2.014c-0.344,1.356,0.02,2.772,0.373,4.133c0.779,2.721,1.889,5.278,3.026,7.654l0.05,0.104
								l-0.02,0.108c-1.374,7.473-2.545,14.308-3.378,20.363c-0.209,1.514-0.382,2.98-0.511,4.395
								c-0.114,1.42-0.214,2.765,0.138,4.018c0.633,2.532,1.514,4.796,2.284,6.828c1.577,4.06,2.93,7.191,3.84,9.325
								c0.453,1.058,0.8,1.871,1.04,2.432c0.111,0.269,0.196,0.475,0.258,0.626C135.367,307.615,135.391,307.689,135.383,307.692z"
								/>
						</g>
					</g>
				</g>
				<g>
					<g>
						<path style="fill:#EB996E;" d="M145.647,262.183c-0.113-0.01-0.097-1.361,0.02-3.536c0.117-2.175,0.336-5.176,0.628-8.485
							c0.028-0.312,0.056-0.621,0.082-0.91l0.069,0.265c-1.736-2.585-3.252-4.916-4.311-6.615c-1.059-1.699-1.662-2.768-1.572-2.828
							c0.09-0.061,0.855,0.898,2.036,2.515c1.181,1.617,2.777,3.894,4.526,6.47l0.081,0.12l-0.013,0.146
							c-0.025,0.29-0.052,0.598-0.079,0.91c-0.292,3.309-0.602,6.302-0.868,8.464C145.981,260.86,145.76,262.193,145.647,262.183z"
							/>
					</g>
				</g>
				<g>
					<g>
						<path style="fill:#EB996E;" d="M151.323,256.503c-0.107-0.01-0.095-1.235,0.011-3.234c0.107-1.999,0.308-4.772,0.579-7.877
							l0.083,0.286c-0.192-0.249-0.396-0.515-0.602-0.783c-2.035-2.653-3.841-5.083-5.116-6.867
							c-1.274-1.784-2.018-2.921-1.928-2.99c0.09-0.069,0.996,0.943,2.389,2.637c1.393,1.693,3.271,4.067,5.307,6.72
							c0.206,0.269,0.409,0.535,0.6,0.785l0.098,0.128l-0.015,0.158c-0.288,3.103-0.586,5.867-0.838,7.853
							C151.637,255.305,151.43,256.513,151.323,256.503z"/>
					</g>
				</g>
			</g>
			<g>
				<path style="fill:#E8505B;" d="M128.638,300.05l26.816-11.32c0,0,38.949,87.411,41.236,93.063
					c5.384,13.307,0.063,33.06-14.581,32.701c-6.895-0.169-26.655-2.846-32.049-23.833c-1.691-6.581-6.483-22.356-6.483-22.356
					L128.638,300.05z"/>
			</g>
			<g>
				<g>
					<path style="fill:#263238;" d="M155.454,288.73c0.005,0.011-0.156,0.098-0.473,0.256c-0.347,0.169-0.814,0.396-1.407,0.685
						c-1.272,0.602-3.082,1.458-5.373,2.542c-4.676,2.178-11.306,5.267-19.266,8.975l0.126-0.24
						c1.589,8.945,3.566,19.569,5.981,30.87c3.482,16.411,7.279,31.119,10.198,41.716c1.488,5.263,2.696,9.534,3.542,12.527
						c0.415,1.452,0.74,2.592,0.973,3.404c0.1,0.368,0.179,0.661,0.24,0.889c0.051,0.201,0.073,0.306,0.065,0.308
						c-0.009,0.003-0.048-0.096-0.116-0.293c-0.074-0.224-0.17-0.512-0.29-0.874c-0.254-0.805-0.611-1.936-1.066-3.376
						c-0.91-2.937-2.187-7.199-3.702-12.485c-3.012-10.576-6.868-25.283-10.353-41.706c-2.416-11.31-4.368-21.945-5.91-30.902
						l-0.029-0.17l0.155-0.071c7.992-3.639,14.649-6.669,19.344-8.806c2.313-1.036,4.14-1.855,5.424-2.43
						c0.605-0.263,1.081-0.47,1.435-0.624C155.278,288.785,155.449,288.719,155.454,288.73z"/>
				</g>
			</g>
			<g>
				<g>
					<path style="fill:#FAFAFA;" d="M192.355,376.196c0.009,0.006-0.074,0.145-0.24,0.404c-0.203,0.308-0.447,0.68-0.741,1.126
						c-0.317,0.493-0.722,1.084-1.25,1.728c-0.52,0.649-1.073,1.422-1.798,2.179c-0.354,0.39-0.722,0.796-1.105,1.218
						c-0.388,0.421-0.834,0.816-1.273,1.248c-0.865,0.881-1.893,1.706-2.953,2.598c-2.183,1.707-4.725,3.407-7.57,4.876
						c-2.863,1.436-5.735,2.491-8.4,3.25c-1.346,0.332-2.618,0.678-3.839,0.858c-0.608,0.1-1.19,0.228-1.758,0.294
						c-0.567,0.061-1.112,0.12-1.635,0.176c-1.039,0.141-1.99,0.133-2.82,0.171c-0.831,0.048-1.547,0.027-2.132-0.007
						c-0.533-0.025-0.977-0.046-1.346-0.064c-0.307-0.018-0.468-0.033-0.467-0.043c0.001-0.011,0.163-0.017,0.471-0.019
						c0.368,0.001,0.812,0.003,1.345,0.005c0.583,0.015,1.297,0.018,2.124-0.046c0.827-0.055,1.771-0.062,2.804-0.216
						c0.519-0.062,1.061-0.127,1.624-0.195c0.564-0.072,1.142-0.205,1.745-0.31c1.212-0.19,2.474-0.543,3.809-0.88
						c2.644-0.77,5.492-1.825,8.336-3.251c2.826-1.459,5.355-3.14,7.533-4.823c1.058-0.881,2.087-1.693,2.954-2.56
						c0.44-0.426,0.888-0.814,1.278-1.228c0.386-0.415,0.757-0.815,1.114-1.198c0.733-0.744,1.294-1.503,1.825-2.139
						c0.539-0.631,0.956-1.209,1.288-1.69c0.312-0.432,0.572-0.792,0.787-1.09C192.245,376.318,192.346,376.19,192.355,376.196z"/>
				</g>
			</g>
			<g>
				<g>
					<path style="fill:#FAFAFA;" d="M184.995,352.508c0.009,0.005-0.064,0.148-0.212,0.415c-0.157,0.261-0.352,0.671-0.681,1.149
						c-0.62,0.98-1.637,2.334-3.12,3.792c-1.481,1.456-3.465,2.99-5.935,4.217c-2.451,1.243-5.402,2.159-8.578,2.387
						c-3.182,0.23-6.189-0.213-8.909-0.402c-2.721-0.227-5.191-0.179-7.21,0.242c-2.02,0.4-3.559,1.107-4.517,1.739
						c-0.967,0.626-1.415,1.093-1.44,1.065c0,0,0.415-0.501,1.373-1.166c0.949-0.671,2.499-1.421,4.54-1.854
						c2.037-0.454,4.543-0.525,7.275-0.313c2.732,0.175,5.73,0.605,8.866,0.378c3.13-0.225,6.043-1.119,8.472-2.333
						c2.447-1.198,4.423-2.696,5.91-4.118c1.489-1.424,2.525-2.746,3.172-3.701c0.343-0.465,0.554-0.863,0.728-1.113
						C184.894,352.635,184.985,352.503,184.995,352.508z"/>
				</g>
			</g>
			<g>
				<g>
					<path style="fill:#FAFAFA;" d="M137.664,342.106c0.004-0.036,0.534,0.046,1.495,0.035c0.959-0.008,2.353-0.158,3.996-0.656
						c1.64-0.501,3.509-1.369,5.408-2.614c1.904-1.24,3.818-2.861,5.802-4.589c1.985-1.729,3.89-3.381,5.788-4.672
						c1.892-1.296,3.756-2.231,5.401-2.79c1.648-0.557,3.054-0.756,4.022-0.788c0.97-0.035,1.502,0.059,1.502,0.059
						c-0.001,0.036-0.536-0.009-1.495,0.063c-0.957,0.069-2.339,0.299-3.956,0.875c-1.615,0.579-3.446,1.521-5.311,2.819
						c-1.871,1.291-3.761,2.941-5.747,4.671c-1.985,1.729-3.916,3.354-5.85,4.595c-1.927,1.245-3.831,2.105-5.502,2.585
						c-1.673,0.477-3.091,0.595-4.059,0.566C138.188,342.236,137.664,342.106,137.664,342.106z"/>
				</g>
			</g>
			<g>
				<g>
					<path style="fill:#FAFAFA;" d="M157.615,301.672c0.01,0.004-0.02,0.1-0.088,0.28c-0.061,0.184-0.18,0.441-0.348,0.767
						c-0.341,0.647-0.966,1.529-1.955,2.399c-0.989,0.865-2.345,1.695-3.978,2.289c-1.634,0.599-3.522,0.932-5.501,1.137
						c-1.981,0.201-3.871,0.287-5.575,0.473c-1.704,0.18-3.224,0.462-4.465,0.825c-1.241,0.365-2.201,0.793-2.838,1.135
						c-0.639,0.341-0.97,0.571-0.987,0.546c-0.006-0.009,0.072-0.073,0.226-0.187c0.152-0.119,0.389-0.274,0.701-0.465
						c0.625-0.378,1.585-0.844,2.833-1.241c1.249-0.395,2.782-0.703,4.497-0.9c1.715-0.203,3.606-0.298,5.575-0.498
						c1.965-0.203,3.83-0.524,5.436-1.097c1.607-0.568,2.946-1.36,3.932-2.186C157.08,303.276,157.544,301.616,157.615,301.672z"/>
				</g>
			</g>
		</g>
	</g>
</g>
<g id="Plant">
	<g>
		<g>
			<g>
				<g>
					<g>
						<path style="fill:#E8505B;" d="M396.027,389.565c2.317,2.751,6.223,1.422,7.914-0.534c1.691-1.956,2.242-4.622,2.733-7.161
							c1.122-5.801,2.233-11.881,0.508-17.532c-0.516-1.69-1.313-3.349-2.637-4.518c-1.324-1.169-3.253-1.763-4.913-1.162
							c-1.966,0.712-3.041,2.795-3.778,4.752c-2.166,5.751-3.027,11.989-2.501,18.112
							C393.599,384.381,394.204,387.349,396.027,389.565"/>
					</g>
				</g>
			</g>
		</g>
		<g style="opacity:0.2;">
			<g>
				<g>
					<g>
						<path d="M396.027,389.565c2.317,2.751,6.223,1.422,7.914-0.534c1.691-1.956,2.242-4.622,2.733-7.161
							c1.122-5.801,2.233-11.881,0.508-17.532c-0.516-1.69-1.313-3.349-2.637-4.518c-1.324-1.169-3.253-1.763-4.913-1.162
							c-1.966,0.712-3.041,2.795-3.778,4.752c-2.166,5.751-3.027,11.989-2.501,18.112
							C393.599,384.381,394.204,387.349,396.027,389.565"/>
					</g>
				</g>
			</g>
		</g>
		<g>
			<g>
				<g>
					<g>
						<path style="fill:#E8505B;" d="M405.052,403.736c3.205-2.034,7.141-2.613,10.926-2.329c2.033,0.152,4.176,0.565,5.674,1.949
							c1.498,1.383,1.993,4.009,0.543,5.442c-0.863,0.853-2.153,1.086-3.362,1.18c-2.923,0.227-6.209,0.002-8.385,1.967
							c-1.241,1.121-1.978,2.867-3.526,3.502c-1.514,0.621-3.353-0.14-4.304-1.472c-0.951-1.331-1.135-3.085-0.892-4.703
							C401.727,409.272,401.824,405.785,405.052,403.736z"/>
					</g>
				</g>
			</g>
		</g>
		<g>
			<g>
				<g>
					<g>
						<path style="fill:#E8505B;" d="M390.762,394.279c1.994-2.847,2.072-6.745,0.784-9.973c-1.289-3.228-3.784-5.849-6.573-7.921
							c-3.271-2.43-7.021-4.213-10.97-5.217c-1.554-0.395-3.181-0.671-4.758-0.378c-1.576,0.294-3.105,1.25-3.72,2.731
							c-0.91,2.189,0.368,4.632,1.69,6.6c2.329,3.467,4.932,6.751,7.775,9.811c2.288,2.462,4.871,4.86,8.104,5.776
							c3.233,0.916,6.468,0.485,7.932-1.831"/>
					</g>
				</g>
			</g>
		</g>
		<g>
			<g>
				<g>
					<g>
						<g>
							<path style="fill:#263238;" d="M399.843,433.839c0.039-0.001,0.059-0.482,0.067-1.35c0.008-0.979,0.017-2.208,0.029-3.67
								c0.033-1.546,0.094-3.388,0.342-5.41c0.247-2.017,0.719-4.221,1.377-6.473c0.69-2.241,1.59-4.303,2.708-5.987
								c1.108-1.691,2.458-2.963,3.764-3.744c1.301-0.794,2.497-1.176,3.329-1.373c0.843-0.163,1.313-0.273,1.31-0.311
								c-0.003-0.038-0.481-0.001-1.353,0.1c-0.861,0.135-2.112,0.468-3.488,1.248c-1.382,0.767-2.819,2.065-3.985,3.793
								c-1.177,1.723-2.113,3.831-2.815,6.112c-0.669,2.291-1.13,4.516-1.354,6.574c-0.224,2.055-0.244,3.913-0.227,5.468
								c0.022,1.556,0.091,2.811,0.147,3.677C399.753,433.361,399.805,433.84,399.843,433.839z"/>
						</g>
					</g>
				</g>
			</g>
		</g>
		<g>
			<g>
				<g>
					<g>
						<g>
							<path style="fill:#263238;" d="M399.844,431.016c0.019-0.003,0.012-0.217-0.02-0.622c-0.043-0.465-0.096-1.05-0.163-1.769
								c-0.141-1.535-0.339-3.757-0.502-6.508c-0.354-5.499-0.559-13.116-0.39-21.523c0.175-8.41,0.724-16.011,1.354-21.484
								c0.142-1.371,0.298-2.607,0.452-3.69c0.142-1.085,0.263-2.021,0.392-2.78c0.105-0.714,0.191-1.295,0.26-1.757
								c0.053-0.403,0.072-0.616,0.054-0.62c-0.019-0.004-0.074,0.203-0.163,0.599c-0.095,0.457-0.215,1.033-0.362,1.741
								c-0.162,0.756-0.314,1.688-0.486,2.771c-0.184,1.082-0.367,2.318-0.534,3.689c-0.732,5.476-1.344,13.092-1.519,21.52
								c-0.169,8.425,0.098,16.058,0.553,21.563c0.213,2.753,0.471,4.974,0.678,6.505c0.108,0.715,0.196,1.296,0.266,1.759
								C399.781,430.81,399.825,431.019,399.844,431.016z"/>
						</g>
					</g>
				</g>
			</g>
		</g>
		<g>
			<g>
				<g>
					<g>
						<g>
							<path style="fill:#263238;" d="M398.571,416.361c0.038-0.005-0.027-0.661-0.178-1.847c-0.174-1.181-0.491-2.883-1.013-4.956
								c-0.542-2.066-1.26-4.513-2.28-7.149c-0.983-2.65-2.262-5.492-3.822-8.359c-3.067-5.776-6.943-10.376-10.205-13.149
								c-0.773-0.744-1.607-1.257-2.283-1.771c-0.348-0.244-0.658-0.492-0.968-0.682c-0.311-0.176-0.6-0.339-0.868-0.49
								c-1.044-0.585-1.627-0.891-1.645-0.857c-0.078,0.128,2.336,1.272,5.507,4.094c3.158,2.816,6.935,7.391,9.977,13.119
								c1.546,2.843,2.83,5.656,3.832,8.278c1.039,2.609,1.791,5.027,2.378,7.068c0.568,2.047,0.94,3.727,1.179,4.892
								C398.396,415.72,398.534,416.366,398.571,416.361z"/>
						</g>
					</g>
				</g>
			</g>
		</g>
	</g>
</g>
</svg>
