<?xml version="1.0" standalone="no"?>
<!DOCTYPE svg PUBLIC "-//W3C//DTD SVG 20010904//EN"
 "http://www.w3.org/TR/2001/REC-SVG-20010904/DTD/svg10.dtd">
<svg version="1.0" xmlns="http://www.w3.org/2000/svg"
 width="2000.000000pt" height="2000.000000pt" viewBox="0 0 2000.000000 2000.000000"
 preserveAspectRatio="xMidYMid meet">

<g transform="translate(0.000000,2000.000000) scale(0.100000,-0.100000)"
fill="#000000" stroke="none">
<path d="M1890 14022 l0 -698 -66 -28 c-135 -59 -242 -168 -285 -291 -65 -185
-36 -407 75 -574 54 -81 112 -135 208 -194 l68 -42 0 -247 0 -246 -32 -27
c-17 -15 -79 -50 -137 -80 -233 -116 -331 -227 -366 -411 -19 -97 -19 -162 1
-376 22 -238 10 -348 -52 -469 -33 -66 -69 -106 -128 -140 -28 -17 -40 -27
-26 -23 43 12 104 63 142 120 77 115 100 260 77 492 -7 75 -13 189 -13 252 1
259 96 405 347 531 75 38 97 40 57 4 -36 -32 -101 -143 -125 -212 -34 -98 -44
-175 -55 -421 -5 -119 -14 -244 -21 -277 -31 -167 -99 -315 -274 -595 -141
-226 -206 -351 -249 -480 -76 -227 -69 -442 16 -486 34 -18 323 -48 628 -67
l205 -12 3 -3197 2 -3198 7715 0 7715 0 0 6045 0 6045 -7715 0 -7715 0 0 -698z
m8062 -280 c45 -22 83 -51 118 -90 38 -42 212 -331 643 -1072 324 -558 598
-1037 609 -1064 43 -111 30 -246 -35 -355 -41 -68 -95 -115 -177 -155 l-65
-31 -595 -8 c-327 -4 -894 -6 -1261 -5 l-665 3 -76 38 c-177 87 -267 288 -213
473 11 37 106 215 260 484 803 1401 947 1649 975 1682 40 48 108 95 173 119
41 15 73 19 148 16 84 -2 103 -6 161 -35z m-5910 -1114 c57 -73 132 -163 167
-200 203 -217 456 -278 919 -222 54 7 54 7 48 38 -3 17 -8 54 -12 81 l-6 50
39 -61 c46 -70 80 -99 133 -115 77 -23 147 15 175 97 l13 38 15 -30 c27 -53
67 -198 76 -279 12 -100 2 -792 -14 -1015 -19 -255 -19 -233 3 -221 12 6 22
11 24 11 2 0 33 -36 69 -80 35 -43 66 -79 69 -80 3 0 11 12 17 28 11 23 51 59
57 50 1 -2 52 -66 112 -143 61 -77 160 -203 220 -280 l110 -140 -27 -395 c-15
-217 -25 -397 -23 -399 5 -5 653 95 660 102 11 11 35 241 41 395 l6 172 5174
0 5173 0 0 -3680 0 -3680 -640 0 -640 0 0 93 c0 138 17 315 40 419 21 98 57
217 70 231 4 5 24 -3 45 -17 45 -31 107 -34 146 -8 15 9 48 43 74 74 79 96
123 115 310 129 191 14 242 46 238 150 -5 105 -90 168 -258 189 -231 29 -473
-54 -547 -187 -40 -72 -54 -165 -35 -239 14 -54 13 -59 -8 -113 -32 -79 -63
-208 -78 -331 l-13 -105 -7 80 c-25 287 -29 801 -11 1191 l6 122 47 6 c102 13
180 95 220 231 29 97 69 322 81 459 33 352 -80 606 -270 606 -58 0 -93 -15
-131 -57 -54 -57 -110 -203 -151 -393 -26 -121 -36 -411 -18 -531 22 -156 79
-264 156 -302 l45 -21 -7 -101 c-4 -55 -8 -249 -8 -432 -1 -182 -2 -331 -3
-330 0 1 -15 57 -32 125 -42 164 -109 348 -186 510 l-64 132 20 45 c26 59 35
164 19 238 -50 242 -304 472 -653 589 -106 35 -232 48 -291 28 -115 -37 -157
-148 -102 -267 83 -178 395 -549 545 -647 89 -58 142 -77 232 -83 83 -6 127 4
183 42 l35 24 51 -105 c160 -327 240 -610 260 -909 6 -99 18 -232 26 -295 7
-63 14 -143 14 -178 l0 -62 -5056 2 -5056 3 -199 329 c-109 180 -199 333 -199
340 0 12 18 77 225 821 65 231 129 462 143 513 14 51 28 89 32 85 4 -5 17 -44
30 -88 12 -44 53 -173 91 -287 103 -313 182 -452 347 -609 135 -130 290 -220
490 -285 212 -70 490 -96 618 -59 141 41 273 145 353 281 101 172 147 377 138
613 -8 187 -32 288 -112 474 -7 16 80 17 1747 17 965 0 2364 3 3109 8 1274 7
1171 7 -1760 12 l-3113 5 -139 315 c-77 173 -142 323 -145 333 -5 16 106 17
2228 18 1228 1 2919 5 3758 8 1208 6 743 7 -2240 9 l-3766 2 -64 150 c-36 82
-67 150 -70 150 -3 0 -13 -12 -22 -27 -53 -90 -197 -216 -320 -282 -197 -107
-337 -127 -706 -99 -246 18 -380 -5 -503 -88 -28 -18 -49 -28 -47 -21 6 19 93
74 153 96 95 36 185 44 355 35 275 -16 443 -11 535 14 105 30 244 98 325 160
69 52 186 172 208 214 13 23 -22 104 -506 1194 -286 643 -531 1194 -545 1224
-14 30 -39 85 -55 123 -17 37 -33 67 -36 67 -3 0 -58 -23 -123 -51 -342 -148
-818 -349 -829 -349 -25 0 -162 372 -173 469 l-6 55 -220 62 c-121 35 -229 65
-241 68 -19 5 -22 0 -32 -58 -22 -137 -92 -265 -207 -382 -66 -66 -97 -89
-175 -128 -329 -162 -721 -117 -1035 119 -91 69 -215 200 -287 303 -53 76 -53
78 -53 152 l0 75 -55 -3 c-79 -3 -275 -43 -579 -118 -145 -35 -265 -64 -267
-64 -2 0 -4 99 -4 219 l0 220 138 -6 c119 -5 714 11 797 22 17 2 68 6 115 10
171 12 296 28 325 41 43 20 61 57 68 137 9 102 35 150 96 182 28 14 51 28 51
30 0 3 -18 -4 -41 -15 -23 -12 -43 -20 -45 -18 -2 2 22 42 53 88 120 179 157
299 157 500 -1 141 -18 236 -64 347 l-20 48 94 -97 c127 -130 169 -213 174
-339 7 -174 -64 -319 -215 -439 -88 -70 -95 -77 -54 -54 48 27 144 116 186
174 75 102 112 243 94 365 -16 113 -59 184 -194 323 -66 67 -129 138 -140 156
-11 18 -45 64 -76 102 -31 38 -69 89 -84 113 -37 60 -75 164 -75 206 0 56 43
147 135 286 97 148 133 216 163 309 36 111 48 216 42 355 -2 35 -6 0 -10 -85
-12 -231 -47 -327 -204 -565 -47 -71 -96 -154 -108 -182 -12 -29 -25 -53 -30
-53 -13 0 -9 109 6 181 17 76 45 136 91 194 41 51 88 142 114 222 27 86 59
285 66 422 3 63 8 118 11 123 4 5 17 -1 31 -14 19 -17 36 -23 72 -23 39 0 56
7 112 47 155 110 231 218 230 325 0 48 -33 218 -57 296 -3 9 -3 17 0 17 3 0
51 -60 108 -132z m7865 -756 c14 -58 18 -115 17 -232 -1 -187 -25 -292 -102
-453 -50 -105 -148 -245 -203 -292 -52 -43 -44 -21 18 53 109 131 192 294 234
466 35 142 36 383 2 525 -4 16 -2 22 5 17 6 -3 19 -41 29 -84z m-4098 -299
c-32 -122 -32 -330 0 -448 67 -249 239 -463 465 -577 74 -38 59 -50 -19 -14
-225 103 -409 328 -476 581 -25 97 -31 297 -10 390 16 70 51 169 58 162 3 -3
-6 -45 -18 -94z m4341 -137 c0 -179 -67 -411 -161 -558 -48 -74 -54 -57 -10
30 80 159 133 348 147 524 8 105 24 107 24 4z m-4555 -450 c34 -118 100 -243
179 -341 35 -44 62 -82 60 -84 -8 -9 -106 94 -146 152 -113 165 -179 413 -153
573 8 45 9 40 21 -81 7 -75 24 -168 39 -219z m-2515 -3038 c-102 -22 -188 -60
-285 -128 -319 -221 -363 -245 -506 -276 -90 -20 -294 -22 -399 -5 -130 21
-292 68 -517 150 -450 162 -504 175 -713 175 -267 -1 -520 -62 -690 -165 -24
-15 -47 -26 -49 -23 -16 16 186 115 304 148 160 45 268 60 445 60 190 0 245
-10 483 -93 641 -223 665 -229 888 -238 276 -11 386 29 694 251 134 97 269
155 355 154 34 0 33 -1 -10 -10z m1216 -66 c-50 -98 -185 -186 -331 -217 -39
-7 -150 -21 -247 -30 -192 -17 -298 -39 -377 -79 -55 -28 -65 -31 -56 -16 11
18 101 59 177 80 40 11 145 27 233 35 271 25 362 47 459 109 55 35 120 102
138 142 6 13 15 24 20 24 4 0 -3 -22 -16 -48z m549 -932 c4 -6 -12 -10 -42
-10 -108 0 -281 -70 -408 -166 -32 -23 -110 -87 -174 -142 -186 -159 -259
-211 -366 -262 -121 -58 -170 -70 -272 -69 l-78 2 83 8 c200 21 332 93 612
334 197 169 303 239 428 279 93 31 206 44 217 26z m-4735 -225 c129 -18 231
-38 610 -120 550 -119 783 -155 1001 -155 165 0 245 15 879 164 129 31 300 67
380 80 157 27 388 51 397 43 6 -7 -26 -12 -167 -27 -162 -18 -348 -54 -665
-131 -533 -129 -599 -141 -785 -147 -262 -7 -463 23 -1116 168 -333 74 -568
120 -614 120 -16 0 -32 5 -35 10 -8 12 -11 13 115 -5z m-151 -1204 c45 -69
177 -192 277 -257 248 -162 569 -262 876 -272 248 -8 419 20 967 158 524 131
684 156 966 147 293 -9 486 -61 683 -184 40 -25 71 -47 69 -50 -3 -2 -29 11
-58 30 -68 43 -195 99 -285 126 -158 46 -239 56 -469 56 -278 -1 -387 -19
-909 -149 -421 -106 -604 -142 -791 -156 -436 -33 -955 142 -1229 414 -82 81
-156 186 -132 186 2 0 18 -22 35 -49z m5720 -618 c-12 -21 -45 -67 -73 -103
-238 -307 -605 -537 -998 -624 -143 -32 -361 -51 -438 -38 -53 9 -51 10 45 11
553 6 1097 282 1421 719 61 83 83 100 43 35z m-5333 -917 c232 -74 514 -104
815 -86 187 11 200 13 624 65 362 45 482 55 460 39 -9 -7 -49 -15 -88 -19 -40
-4 -214 -24 -387 -45 -475 -58 -537 -64 -765 -64 -289 0 -479 28 -689 101
-111 38 -254 109 -301 148 -18 15 20 -1 95 -39 69 -35 175 -80 236 -100z
m2348 19 c213 -28 397 -84 591 -181 105 -52 272 -161 262 -170 -3 -3 -42 20
-88 51 -284 189 -654 295 -1032 295 -95 0 -137 3 -127 10 23 15 265 12 394 -5z
m905 -919 c-2 -2 -78 -29 -169 -59 -91 -30 -264 -98 -385 -150 -378 -162 -532
-205 -785 -214 -268 -10 -458 24 -955 172 -477 141 -601 166 -865 172 -197 5
-218 3 -420 -42 -18 -4 -16 -1 8 10 80 37 181 50 392 50 283 -1 389 -21 915
-175 474 -139 602 -163 860 -164 271 -1 427 36 772 180 87 37 208 87 268 111
140 56 386 130 364 109z"/>
<path d="M9665 13626 c-28 -12 -64 -37 -81 -53 -17 -17 -223 -368 -459 -779
-236 -412 -496 -866 -578 -1008 -196 -339 -201 -351 -195 -435 6 -81 31 -133
91 -188 82 -75 55 -73 891 -72 408 1 955 4 1216 8 l475 6 47 27 c132 78 182
233 116 362 -12 23 -284 493 -605 1046 -436 752 -593 1014 -624 1042 -76 70
-200 88 -294 44z m245 -818 c0 -13 -9 -205 -20 -428 -11 -223 -20 -417 -20
-432 l0 -28 -99 0 -99 0 -6 73 c-9 100 -46 752 -46 799 l0 38 145 0 c144 0
145 0 145 -22z m-77 -1052 c98 -40 125 -162 56 -241 -58 -65 -159 -71 -224
-13 -132 115 5 322 168 254z"/>
<path d="M3561 12070 c0 -8 4 -24 9 -35 5 -13 9 -14 9 -5 0 8 -4 24 -9 35 -5
13 -9 14 -9 5z"/>
<path d="M3581 11994 c0 -11 3 -14 6 -6 3 7 2 16 -1 19 -3 4 -6 -2 -5 -13z"/>
<path d="M4010 11998 c-147 -19 -320 -132 -320 -209 0 -28 25 -24 136 22 54
22 159 58 233 79 74 22 141 46 149 54 34 34 -90 68 -198 54z"/>
<path d="M3592 11945 c0 -16 2 -22 5 -12 2 9 2 23 0 30 -3 6 -5 -1 -5 -18z"/>
<path d="M5102 11959 c-55 -7 -82 -22 -82 -45 0 -19 22 -28 130 -59 52 -15
144 -47 204 -72 59 -24 115 -42 122 -39 26 10 15 55 -22 96 -75 83 -227 134
-352 119z"/>
<path d="M3995 11739 c-68 -7 -120 -27 -152 -58 -44 -42 -28 -50 51 -26 78 24
183 19 263 -11 37 -14 76 -28 86 -31 28 -9 20 20 -15 54 -64 60 -136 83 -233
72z"/>
<path d="M4640 11689 c0 -38 107 -412 224 -784 46 -147 47 -168 4 -178 -13 -3
-67 -9 -121 -12 -109 -8 -140 -24 -50 -26 176 -4 207 -1 231 26 13 15 22 39
22 57 0 53 -217 738 -279 881 -20 45 -31 59 -31 36z"/>
<path d="M5141 11690 c-72 -15 -159 -75 -138 -96 2 -3 31 2 63 10 124 31 207
25 317 -24 27 -12 51 -19 55 -15 15 15 -31 62 -90 92 -69 35 -139 46 -207 33z"/>
<path d="M3983 11545 c-56 -24 -81 -105 -47 -153 19 -27 65 -52 96 -52 30 0
84 33 99 62 28 51 6 118 -46 143 -40 18 -60 18 -102 0z"/>
<path d="M5154 11511 c-36 -16 -64 -60 -64 -103 0 -81 88 -126 168 -85 55 27
68 109 25 157 -30 34 -89 48 -129 31z"/>
<path d="M5460 10054 c-12 -38 -31 -90 -42 -115 l-19 -47 41 -82 c35 -70 43
-97 51 -174 4 -50 9 -95 9 -101 2 -14 29 62 41 113 5 24 16 98 23 164 l15 121
-48 96 -48 95 -23 -70z"/>
<path d="M5153 9544 c-120 -121 -279 -214 -430 -252 -40 -10 -76 -22 -80 -26
-5 -4 -10 -46 -13 -92 -4 -74 -3 -84 12 -84 41 0 512 31 515 34 4 4 83 464 83
483 0 21 -11 13 -87 -63z"/>
<path d="M10987 8642 c-44 -30 -56 -53 -57 -110 0 -48 4 -58 33 -87 57 -57
149 -59 212 -4 64 57 55 155 -18 199 -42 26 -131 27 -170 2z"/>
<path d="M6590 8524 c0 -3 77 -239 171 -525 l170 -519 134 0 133 0 117 351
c70 208 121 346 125 338 4 -8 56 -166 116 -352 l109 -338 134 3 135 3 167 510
c92 281 168 516 168 523 1 9 -28 12 -113 12 l-114 0 -124 -371 -124 -371 -119
371 -119 371 -116 0 -115 0 -119 -357 c-65 -197 -121 -361 -125 -365 -3 -4
-58 156 -122 355 l-116 362 -126 3 c-70 1 -127 0 -127 -4z"/>
<path d="M13493 8443 c3 -49 14 -204 23 -345 l17 -258 93 0 92 0 6 63 c4 34
13 168 21 297 8 129 17 256 20 283 l6 47 -142 0 -142 0 6 -87z"/>
<path d="M8533 8289 c-60 -10 -144 -41 -191 -69 l-33 -20 42 -78 c23 -42 43
-78 43 -79 1 -1 30 13 66 30 59 29 72 32 161 32 83 0 102 -3 125 -21 39 -29
63 -64 66 -99 l3 -30 -165 -6 c-193 -7 -242 -21 -305 -83 -88 -89 -87 -225 5
-317 58 -58 126 -83 230 -83 96 -1 159 17 210 61 l40 35 0 -41 0 -41 110 0
110 0 0 273 c0 302 -6 340 -60 416 -78 107 -256 154 -457 120z m285 -514 c4
-49 -27 -99 -78 -129 -49 -29 -148 -29 -186 0 -52 39 -56 109 -8 141 36 23 86
31 184 30 l85 -2 3 -40z"/>
<path d="M9650 8284 c-60 -16 -90 -33 -132 -72 l-28 -26 0 52 0 52 -110 0
-110 0 0 -405 0 -405 115 0 115 0 0 208 c0 238 9 288 62 339 43 41 80 55 151
56 l57 0 0 109 0 108 -32 -1 c-18 0 -58 -7 -88 -15z"/>
<path d="M10295 8285 c-27 -8 -53 -14 -57 -15 -3 0 -27 -16 -52 -35 l-46 -35
0 45 0 45 -115 0 -115 0 0 -405 0 -405 120 0 120 0 0 229 c0 143 4 241 11 262
14 41 53 85 94 107 44 23 139 20 172 -4 72 -54 83 -104 83 -385 l0 -209 116 0
115 0 -3 288 c-4 245 -7 294 -22 334 -25 67 -94 140 -158 168 -67 29 -192 36
-263 15z"/>
<path d="M11825 8295 c-5 -2 -29 -9 -52 -15 -22 -5 -64 -26 -92 -45 l-51 -35
0 45 0 45 -110 0 -110 0 0 -405 0 -405 114 0 114 0 4 233 c3 219 4 235 26 279
28 57 63 84 126 98 89 20 175 -24 196 -99 5 -20 10 -143 10 -273 l0 -238 120
0 120 0 0 248 c0 137 -5 275 -11 307 -31 166 -135 254 -309 261 -47 2 -89 2
-95 -1z"/>
<path d="M12695 8286 c-119 -29 -224 -117 -267 -224 -18 -46 -22 -77 -23 -157
0 -92 3 -106 32 -167 17 -36 50 -85 73 -108 129 -129 391 -152 518 -46 l32 28
0 -46 c0 -94 -51 -167 -134 -191 -100 -30 -228 -12 -335 45 -30 17 -55 29 -57
27 -1 -1 -22 -39 -47 -84 l-46 -83 43 -25 c189 -111 518 -111 667 -1 25 19 60
55 78 82 63 96 64 108 69 552 l3 402 -115 0 -116 0 0 -45 0 -45 -47 34 c-86
61 -209 81 -328 52z m266 -207 c102 -52 134 -180 70 -283 -45 -73 -179 -108
-269 -71 -105 44 -151 168 -102 271 49 99 192 139 301 83z"/>
<path d="M10950 7885 l0 -405 120 0 120 0 0 405 0 405 -120 0 -120 0 0 -405z"/>
<path d="M13591 7730 c-109 -25 -146 -150 -66 -226 90 -85 245 -26 245 92 0
97 -79 156 -179 134z"/>
<path d="M9594 6826 c-10 -26 4 -48 28 -44 17 2 23 10 23 28 0 18 -6 26 -23
28 -13 2 -25 -3 -28 -12z"/>
<path d="M11070 6620 c0 -213 1 -220 20 -220 19 0 20 7 20 220 0 213 -1 220
-20 220 -19 0 -20 -7 -20 -220z"/>
<path d="M7776 6618 c-49 -106 -91 -199 -93 -205 -3 -8 3 -13 16 -13 16 0 28
14 48 55 l27 55 113 0 113 0 27 -55 c18 -36 33 -55 45 -55 10 0 18 6 18 13 -1
6 -40 98 -88 202 -119 258 -110 258 -226 3z m163 34 c23 -51 41 -95 41 -97 0
-3 -42 -5 -94 -5 l-95 0 47 105 c25 58 49 102 53 98 4 -5 26 -50 48 -101z"/>
<path d="M8160 6745 c0 -31 -3 -35 -25 -35 -16 0 -25 -6 -25 -15 0 -9 9 -15
25 -15 l25 0 0 -111 c0 -61 4 -118 10 -128 23 -44 140 -53 140 -11 0 15 -6 17
-38 13 -63 -9 -73 10 -70 131 l3 101 48 3 c32 2 47 8 47 17 0 9 -15 15 -47 17
-46 3 -48 4 -51 36 -2 24 -8 32 -23 32 -15 0 -19 -7 -19 -35z"/>
<path d="M8390 6745 c0 -31 -3 -35 -25 -35 -16 0 -25 -6 -25 -15 0 -9 9 -15
25 -15 l25 0 0 -113 c0 -126 9 -151 60 -162 44 -10 90 3 90 25 0 15 -6 17 -38
13 -63 -9 -73 10 -70 131 l3 101 48 3 c32 2 47 8 47 17 0 9 -15 15 -47 17 -46
3 -48 4 -51 36 -2 24 -8 32 -23 32 -15 0 -19 -7 -19 -35z"/>
<path d="M9368 6748 c-2 -28 -8 -34 -30 -36 -16 -2 -28 -9 -28 -17 0 -8 12
-15 28 -17 l27 -3 5 -117 c4 -90 9 -121 21 -133 23 -23 89 -30 113 -12 28 21
12 37 -31 30 -54 -9 -63 10 -63 134 l0 103 45 0 c33 0 45 4 45 15 0 11 -12 15
-45 15 -45 0 -45 0 -45 35 0 28 -4 35 -19 35 -15 0 -21 -8 -23 -32z"/>
<path d="M8645 6690 c-62 -41 -84 -139 -47 -210 34 -66 134 -97 205 -66 56 25
63 32 47 50 -12 15 -14 15 -31 0 -27 -24 -99 -30 -137 -10 -33 17 -67 69 -57
86 4 6 61 10 131 10 121 0 124 1 124 22 0 36 -38 102 -69 121 -41 24 -127 23
-166 -3z m135 -25 c25 -13 60 -60 60 -80 0 -3 -49 -5 -110 -5 -60 0 -110 2
-110 5 0 20 35 67 58 79 35 20 66 20 102 1z"/>
<path d="M8962 6558 c3 -145 4 -153 23 -153 19 0 20 8 23 103 3 121 15 146 73
164 33 9 45 9 74 -5 43 -20 55 -60 55 -179 0 -81 2 -88 20 -88 19 0 20 7 20
105 0 163 -27 205 -131 205 -41 0 -63 -5 -82 -20 -14 -11 -28 -20 -31 -20 -3
0 -6 9 -6 20 0 13 -7 20 -20 20 -20 0 -20 -5 -18 -152z"/>
<path d="M9600 6555 c0 -148 1 -155 20 -155 19 0 20 7 20 155 0 148 -1 155
-20 155 -19 0 -20 -7 -20 -155z"/>
<path d="M9793 6690 c-43 -26 -63 -68 -63 -133 0 -124 112 -191 226 -136 103
49 111 202 15 266 -45 30 -132 32 -178 3z m163 -41 c83 -78 32 -209 -82 -209
-54 0 -104 53 -104 109 0 83 51 135 123 127 22 -2 50 -14 63 -27z"/>
<path d="M10122 6558 c3 -145 4 -153 23 -153 19 0 20 8 25 113 5 104 7 115 28
133 35 27 84 34 120 15 40 -20 52 -63 52 -179 0 -79 2 -88 18 -85 14 3 17 17
20 98 5 163 -23 210 -128 210 -42 0 -64 -5 -83 -20 -14 -11 -28 -20 -31 -20
-3 0 -6 9 -6 20 0 13 -7 20 -20 20 -20 0 -20 -5 -18 -152z"/>
<path d="M10670 6500 l0 -210 25 0 c25 0 25 1 25 80 l0 81 28 -21 c64 -48 175
-28 214 38 45 75 24 181 -44 222 -48 29 -125 27 -172 -5 l-36 -24 0 24 c0 18
-5 25 -20 25 -19 0 -20 -7 -20 -210z m210 165 c43 -22 60 -53 60 -108 0 -42
-5 -54 -34 -83 -28 -28 -42 -34 -76 -34 -34 0 -48 6 -76 34 -29 29 -34 41 -34
81 0 57 12 80 53 105 38 24 68 25 107 5z"/>
<path d="M11265 6690 c-62 -41 -84 -139 -47 -210 21 -41 90 -80 138 -80 64 0
134 41 113 66 -8 10 -17 9 -42 -7 -38 -23 -87 -24 -127 -4 -31 16 -65 69 -55
85 4 6 61 10 131 10 118 0 124 1 124 20 0 35 -26 85 -59 113 -27 22 -42 27
-89 27 -40 0 -66 -6 -87 -20z m141 -29 c17 -11 36 -33 42 -50 l11 -31 -110 0
c-60 0 -109 2 -109 5 0 20 35 67 58 79 37 21 71 20 108 -3z"/>
<path d="M11587 6694 c-19 -10 -27 -21 -23 -31 3 -8 6 -17 6 -19 0 -2 10 2 23
11 13 8 44 18 68 21 39 5 49 3 72 -17 14 -13 29 -36 32 -50 l7 -27 -85 -3
c-74 -4 -89 -7 -111 -28 -33 -31 -35 -80 -3 -116 32 -38 101 -45 157 -16 l40
21 0 -21 c0 -14 5 -19 18 -17 15 3 17 18 20 111 4 163 -20 197 -136 197 -31
-1 -70 -8 -85 -16z m181 -171 c2 -13 -8 -34 -26 -54 -23 -26 -36 -32 -71 -32
-54 0 -87 28 -77 68 9 34 37 45 111 42 53 -2 60 -4 63 -24z"/>
<path d="M11935 6699 c-32 -18 -45 -40 -45 -75 0 -43 34 -69 108 -84 86 -18
115 -53 70 -84 -28 -20 -88 -20 -135 -1 -29 12 -38 13 -45 3 -4 -7 -8 -16 -8
-19 0 -13 58 -31 110 -36 96 -8 158 45 134 115 -9 27 -14 29 -153 70 -33 10
-49 37 -35 59 18 28 70 38 122 24 36 -9 47 -9 53 1 5 7 4 17 -2 23 -14 14
-150 18 -174 4z"/>
<path d="M12243 6690 c-43 -26 -63 -68 -63 -130 0 -89 47 -145 133 -156 73
-10 148 24 133 61 -4 13 -11 12 -41 -6 -52 -31 -119 -22 -157 20 -15 17 -28
40 -28 51 0 19 7 20 131 20 l131 0 -7 33 c-11 47 -31 82 -61 106 -36 28 -126
29 -171 1z m137 -27 c33 -23 49 -44 50 -65 0 -16 -12 -18 -105 -18 -115 0
-123 5 -84 54 37 47 96 59 139 29z"/>
<path d="M914 10186 c11 -9 24 -16 30 -16 12 0 7 5 -24 19 -24 11 -24 11 -6
-3z"/>
<path d="M968 10163 c7 -3 16 -2 19 1 4 3 -2 6 -13 5 -11 0 -14 -3 -6 -6z"/>
<path d="M1098 10163 c7 -3 16 -2 19 1 4 3 -2 6 -13 5 -11 0 -14 -3 -6 -6z"/>
<path d="M1023 10153 c9 -2 25 -2 35 0 9 3 1 5 -18 5 -19 0 -27 -2 -17 -5z"/>
</g>
</svg>
